<?xml version="1.0" encoding="utf-8"?>
<!-- Generator: Adobe Illustrator 26.0.2, SVG Export Plug-In . SVG Version: 6.00 Build 0)  -->
<svg version="1.1" id="Layer_1" xmlns="http://www.w3.org/2000/svg" xmlns:xlink="http://www.w3.org/1999/xlink" x="0px" y="0px"
	 viewBox="0 0 817.8 326" style="enable-background:new 0 0 817.8 326;" xml:space="preserve">
<style type="text/css">
	.st0{fill:#FFFFFF;}
	.st1{fill:url(#SVGID_1_);}
	.st2{fill:url(#SVGID_00000048466102309234910680000009698371357011338398_);}
</style>
<g>
	<g>
		<path class="st0" d="M386.2,286h8.6c1.4,0,2.7,0.2,3.9,0.5c1.2,0.4,2.2,0.9,3,1.6c0.8,0.7,1.5,1.6,2,2.6c0.5,1,0.7,2.2,0.7,3.5
			c0,1.4-0.2,2.7-0.7,3.8c-0.5,1.1-1.2,1.9-2.1,2.6c-0.9,0.7-2,1.2-3.2,1.6c-1.2,0.3-2.6,0.5-4,0.5h-4.1v10.6h-4V286z M390.2,299.5
			h2.5c1.1,0,2.1-0.1,3-0.2c0.9-0.1,1.7-0.4,2.4-0.8c0.7-0.4,1.2-0.9,1.5-1.6c0.4-0.7,0.6-1.5,0.6-2.6c0-1-0.2-1.8-0.5-2.4
			s-0.8-1.2-1.4-1.6c-0.6-0.4-1.2-0.7-2-0.9c-0.8-0.2-1.5-0.3-2.3-0.3h-3.7V299.5z"/>
		<path class="st0" d="M410.2,286h8.9c1.4,0,2.7,0.2,3.8,0.6s2,1,2.7,1.7s1.3,1.6,1.6,2.6c0.4,1,0.6,2.1,0.6,3.3c0,1-0.2,2-0.5,2.8
			c-0.3,0.8-0.7,1.6-1.3,2.2c-0.5,0.6-1.1,1.2-1.8,1.6s-1.4,0.8-2.1,1.1l7.2,11.5H425l-6.5-10.7H414v10.7h-3.8V286z M414,299.4h3.3
			c0.9,0,1.7-0.1,2.5-0.3c0.8-0.2,1.4-0.5,2-0.9c0.6-0.4,1-0.9,1.3-1.5c0.3-0.6,0.5-1.4,0.5-2.3c0-1.8-0.5-3.1-1.5-3.9
			c-1-0.8-2.4-1.3-4.2-1.3H414V299.4z"/>
		<path class="st0" d="M446.4,285.6c1.8,0,3.6,0.3,5.1,0.9c1.6,0.6,2.9,1.5,4.1,2.6c1.1,1.2,2,2.6,2.7,4.4c0.6,1.8,1,3.8,1,6.1
			c0,2.3-0.3,4.3-1,6.1c-0.7,1.8-1.6,3.2-2.7,4.4c-1.2,1.2-2.5,2.1-4.1,2.7c-1.6,0.6-3.3,0.9-5.1,0.9c-1.9,0-3.6-0.3-5.1-0.9
			c-1.6-0.6-2.9-1.5-4.1-2.6c-1.1-1.2-2-2.6-2.7-4.4c-0.6-1.7-1-3.8-1-6.1c0-2.3,0.3-4.3,1-6.1c0.7-1.7,1.6-3.2,2.7-4.4
			c1.2-1.2,2.5-2.1,4.1-2.7C442.8,285.9,444.6,285.6,446.4,285.6z M437.8,299.7c0,1.9,0.2,3.5,0.7,4.8c0.4,1.4,1.1,2.5,1.8,3.4
			c0.8,0.9,1.7,1.6,2.8,2c1.1,0.4,2.2,0.7,3.4,0.7c1.2,0,2.3-0.2,3.3-0.7c1-0.4,1.9-1.1,2.7-2c0.8-0.9,1.4-2,1.8-3.4
			c0.4-1.4,0.7-3,0.7-4.8c0-1.9-0.2-3.5-0.7-4.9c-0.4-1.4-1.1-2.5-1.8-3.4c-0.8-0.9-1.7-1.5-2.8-2c-1.1-0.4-2.2-0.6-3.4-0.6
			c-1.2,0-2.3,0.2-3.3,0.7c-1,0.4-1.9,1.1-2.7,2c-0.8,0.9-1.3,2-1.8,3.4C438,296.2,437.8,297.8,437.8,299.7z"/>
		<path class="st0" d="M475.2,286c1.9,0,3.7,0.3,5.4,0.8c1.6,0.5,3.1,1.4,4.3,2.5s2.1,2.4,2.8,4.1c0.7,1.6,1,3.5,1,5.7
			c0,2.6-0.4,4.9-1.2,6.7c-0.8,1.8-1.9,3.3-3.3,4.4c-1.4,1.1-3,1.9-4.8,2.4c-1.8,0.5-3.7,0.7-5.7,0.7h-7.4V286H475.2z M470.3,310h3
			c1.4,0,2.7-0.2,4.1-0.5c1.3-0.3,2.5-0.9,3.5-1.7c1-0.8,1.9-1.9,2.5-3.4c0.6-1.4,1-3.2,1-5.5c0-1.6-0.2-3-0.7-4.2
			c-0.5-1.2-1.1-2.2-2-3.1c-0.9-0.8-1.9-1.5-3.1-1.9c-1.2-0.4-2.6-0.7-4.1-0.7h-4.1V310z"/>
		<path class="st0" d="M495.4,286h4v16.4c0,2.9,0.5,5,1.6,6.2c1.1,1.2,2.8,1.9,5.2,1.9c2.3,0,4.1-0.7,5.1-2.1
			c1.1-1.4,1.6-3.2,1.6-5.5V286h4v16.7c0,3.7-1,6.5-2.9,8.3c-1.9,1.8-4.5,2.7-7.9,2.7c-3.4,0-6-0.9-7.9-2.7s-2.8-4.6-2.8-8.5V286z"
			/>
		<path class="st0" d="M543.3,286v3.4h-8.5v23.9h-4v-23.9h-8.4V286H543.3z"/>
		<path class="st0" d="M559.5,285.6c1.9,0,3.6,0.3,5.1,0.9c1.6,0.6,2.9,1.5,4.1,2.6c1.1,1.2,2,2.6,2.7,4.4c0.6,1.8,1,3.8,1,6.1
			c0,2.3-0.3,4.3-1,6.1c-0.7,1.8-1.6,3.2-2.7,4.4c-1.2,1.2-2.5,2.1-4.1,2.7c-1.6,0.6-3.3,0.9-5.1,0.9c-1.9,0-3.6-0.3-5.1-0.9
			c-1.6-0.6-2.9-1.5-4.1-2.6s-2-2.6-2.7-4.4c-0.6-1.7-1-3.8-1-6.1c0-2.3,0.3-4.3,1-6.1c0.7-1.7,1.6-3.2,2.7-4.4
			c1.2-1.2,2.5-2.1,4.1-2.7C555.9,285.9,557.6,285.6,559.5,285.6z M550.9,299.7c0,1.9,0.2,3.5,0.7,4.8c0.4,1.4,1.1,2.5,1.8,3.4
			c0.8,0.9,1.7,1.6,2.8,2c1.1,0.4,2.2,0.7,3.4,0.7c1.2,0,2.3-0.2,3.3-0.7c1-0.4,1.9-1.1,2.7-2c0.8-0.9,1.4-2,1.8-3.4
			c0.4-1.4,0.7-3,0.7-4.8c0-1.9-0.2-3.5-0.7-4.9c-0.4-1.4-1.1-2.5-1.8-3.4c-0.8-0.9-1.7-1.5-2.8-2c-1.1-0.4-2.2-0.6-3.4-0.6
			c-1.2,0-2.3,0.2-3.3,0.7c-1,0.4-1.9,1.1-2.7,2c-0.8,0.9-1.3,2-1.8,3.4C551.1,296.2,550.9,297.8,550.9,299.7z"/>
		<path class="st0" d="M586.9,285.6c1.3,0,2.6,0.1,3.9,0.3c1.2,0.2,2.5,0.6,3.7,1.2l-1,3.3c-1.2-0.6-2.4-1-3.4-1.2
			c-1-0.2-2-0.4-3.1-0.4c-1.6,0-3,0.4-3.9,1.1c-1,0.7-1.4,1.7-1.4,3c0,1.1,0.4,2,1.1,2.6c0.7,0.7,1.9,1.2,3.5,1.7l2.7,0.9
			c2.5,0.8,4.2,1.8,5.3,3.2c1,1.3,1.5,2.9,1.5,4.5c0,1.2-0.2,2.3-0.7,3.2c-0.5,1-1.1,1.8-2,2.5c-0.9,0.7-1.9,1.2-3,1.6
			s-2.4,0.5-3.8,0.5c-1.4,0-2.8-0.1-4.2-0.4c-1.4-0.2-2.9-0.7-4.3-1.4l1-3.3c1.2,0.6,2.5,1.1,3.6,1.3c1.2,0.3,2.4,0.4,3.7,0.4
			c1.6,0,2.9-0.4,4-1.1c1.1-0.7,1.6-1.8,1.6-3.2c0-0.5-0.1-1-0.2-1.5c-0.2-0.4-0.4-0.9-0.8-1.3c-0.4-0.4-0.9-0.8-1.6-1.1
			c-0.7-0.3-1.5-0.7-2.5-1l-2.7-0.9c-2-0.6-3.5-1.5-4.6-2.6c-1.1-1.1-1.6-2.6-1.6-4.5c0-2.4,0.8-4.3,2.4-5.7
			C581.6,286.3,583.9,285.6,586.9,285.6z"/>
		<path class="st0" d="M626.6,285.6c1.9,0,3.6,0.3,5.1,0.9c1.6,0.6,2.9,1.5,4.1,2.6c1.1,1.2,2,2.6,2.7,4.4c0.6,1.8,1,3.8,1,6.1
			c0,3-0.6,5.6-1.9,7.8c-1.2,2.1-3.3,4-6,5.6l-5.9,3.3c0.9,0,1.7,0.1,2.4,0.3c0.7,0.2,1.5,0.5,2.2,0.7c0.8,0.3,1.5,0.5,2.3,0.7
			c0.8,0.2,1.7,0.3,2.7,0.3c0.6,0,1.2-0.1,1.8-0.3c0.7-0.2,1.3-0.5,1.8-0.9l1.6,2.9c-0.8,0.5-1.7,0.9-2.7,1.2
			c-1,0.3-1.9,0.4-2.7,0.4c-1,0-2-0.1-3-0.4c-1-0.3-2-0.6-3-0.9c-1-0.3-2-0.6-2.9-0.9c-1-0.3-1.9-0.4-2.9-0.4
			c-0.8,0-1.5,0.1-2.2,0.3c-0.7,0.2-1.5,0.6-2.2,1l-1.6-3l6.7-3.9c-1.5-0.2-2.9-0.7-4.2-1.4c-1.3-0.7-2.3-1.6-3.3-2.8
			c-0.9-1.1-1.6-2.5-2.1-4.1c-0.5-1.6-0.8-3.5-0.8-5.5c0-2.3,0.3-4.3,1-6.1c0.7-1.7,1.6-3.2,2.7-4.4c1.2-1.2,2.5-2.1,4.1-2.7
			C623.1,285.9,624.8,285.6,626.6,285.6z M618,299.7c0,1.9,0.2,3.5,0.6,4.8c0.4,1.4,1,2.5,1.7,3.4c0.7,0.9,1.6,1.6,2.6,2.1
			c1,0.5,2.1,0.7,3.3,0.7c1.2,0,2.3-0.2,3.4-0.7c1.1-0.5,2-1.2,2.8-2.1c0.8-0.9,1.5-2.1,1.9-3.5c0.5-1.4,0.7-3,0.7-4.8
			c0-1.9-0.2-3.5-0.7-4.9c-0.4-1.4-1.1-2.5-1.8-3.4c-0.8-0.9-1.7-1.5-2.8-2c-1.1-0.4-2.2-0.6-3.4-0.6c-1.2,0-2.3,0.2-3.3,0.7
			c-1,0.4-1.9,1.1-2.7,2c-0.8,0.9-1.3,2-1.8,3.4C618.2,296.2,618,297.8,618,299.7z"/>
		<path class="st0" d="M645.9,286h4v16.4c0,2.9,0.5,5,1.6,6.2c1.1,1.2,2.8,1.9,5.2,1.9c2.3,0,4.1-0.7,5.1-2.1
			c1.1-1.4,1.6-3.2,1.6-5.5V286h4v16.7c0,3.7-1,6.5-2.9,8.3c-1.9,1.8-4.5,2.7-7.9,2.7c-3.4,0-6-0.9-7.9-2.7
			c-1.9-1.8-2.8-4.6-2.8-8.5V286z"/>
		<path class="st0" d="M679.7,286v27.3h-4V286H679.7z M679.2,282.5h-3.1l3.5-5.4h4.5L679.2,282.5z"/>
		<path class="st0" d="M689.6,286h5.2l5.7,17.4c0.3,0.8,0.6,1.7,0.8,2.5c0.3,0.8,0.5,1.6,0.7,2.4h0.1c0.2-0.8,0.5-1.6,0.7-2.3
			c0.2-0.8,0.5-1.6,0.8-2.5l5.6-17.4h5.2l2.4,27.3h-4l-1.1-14.5c-0.1-1.4-0.2-2.8-0.3-4.2c-0.1-1.4-0.1-2.8-0.2-4.3h-0.1
			c-0.4,1.4-0.8,2.8-1.2,4.3c-0.4,1.4-0.9,2.8-1.3,4.3l-4.8,14.5h-3.6l-4.8-14.5c-0.5-1.5-0.9-2.9-1.3-4.2c-0.4-1.3-0.8-2.8-1.2-4.2
			h-0.1c-0.1,1.4-0.1,2.8-0.2,4.3c-0.1,1.4-0.2,2.8-0.3,4.3l-1,14.5h-3.9L689.6,286z"/>
		<path class="st0" d="M728.6,286v27.3h-4V286H728.6z"/>
		<path class="st0" d="M749.1,310.4c1.4,0,2.6-0.1,3.6-0.3c0.9-0.2,1.9-0.6,2.8-1l0.9,3.2c-1,0.5-2.1,0.9-3.3,1.1
			c-1.2,0.2-2.7,0.3-4.4,0.3c-1.8,0-3.5-0.3-5.1-0.9c-1.6-0.6-3-1.5-4.1-2.7c-1.2-1.2-2.1-2.7-2.8-4.4c-0.7-1.7-1-3.8-1-6.1
			c0-2.2,0.3-4.2,1-6c0.7-1.7,1.6-3.2,2.8-4.4c1.2-1.2,2.6-2.1,4.2-2.7c1.6-0.6,3.4-0.9,5.3-0.9c1.8,0,3.3,0.1,4.4,0.4
			c1.2,0.3,2.2,0.7,3.2,1.2l-1,3.1c-0.5-0.2-1.1-0.4-1.5-0.6c-0.5-0.2-1-0.3-1.4-0.5c-0.5-0.1-1-0.2-1.5-0.3
			c-0.5-0.1-1.1-0.1-1.7-0.1c-1.3,0-2.5,0.2-3.6,0.6c-1.1,0.4-2.1,1-3,1.9c-0.9,0.9-1.5,2-2,3.4c-0.5,1.4-0.8,3-0.8,5
			c0,2,0.2,3.6,0.7,5c0.5,1.4,1.2,2.5,2,3.3c0.8,0.8,1.8,1.5,2.9,1.8C746.7,310.2,747.9,310.4,749.1,310.4z"/>
		<path class="st0" d="M773.3,285.6c1.9,0,3.6,0.3,5.1,0.9c1.6,0.6,2.9,1.5,4.1,2.6c1.1,1.2,2,2.6,2.7,4.4c0.6,1.8,1,3.8,1,6.1
			c0,2.3-0.3,4.3-1,6.1c-0.7,1.8-1.6,3.2-2.7,4.4c-1.2,1.2-2.5,2.1-4.1,2.7c-1.6,0.6-3.3,0.9-5.1,0.9c-1.9,0-3.6-0.3-5.1-0.9
			c-1.6-0.6-2.9-1.5-4.1-2.6s-2-2.6-2.7-4.4c-0.6-1.7-1-3.8-1-6.1c0-2.3,0.3-4.3,1-6.1c0.7-1.7,1.6-3.2,2.7-4.4
			c1.2-1.2,2.5-2.1,4.1-2.7C769.7,285.9,771.4,285.6,773.3,285.6z M764.7,299.7c0,1.9,0.2,3.5,0.7,4.8c0.4,1.4,1.1,2.5,1.8,3.4
			c0.8,0.9,1.7,1.6,2.8,2c1.1,0.4,2.2,0.7,3.4,0.7c1.2,0,2.3-0.2,3.3-0.7c1-0.4,1.9-1.1,2.7-2c0.8-0.9,1.4-2,1.8-3.4
			c0.4-1.4,0.7-3,0.7-4.8c0-1.9-0.2-3.5-0.7-4.9c-0.4-1.4-1.1-2.5-1.8-3.4c-0.8-0.9-1.7-1.5-2.8-2c-1.1-0.4-2.2-0.6-3.4-0.6
			c-1.2,0-2.3,0.2-3.3,0.7c-1,0.4-1.9,1.1-2.7,2c-0.8,0.9-1.3,2-1.8,3.4C764.9,296.2,764.7,297.8,764.7,299.7z"/>
		<path class="st0" d="M800.7,285.6c1.3,0,2.6,0.1,3.9,0.3c1.2,0.2,2.5,0.6,3.7,1.2l-1,3.3c-1.2-0.6-2.4-1-3.4-1.2
			c-1-0.2-2-0.4-3.1-0.4c-1.6,0-3,0.4-3.9,1.1c-1,0.7-1.4,1.7-1.4,3c0,1.1,0.4,2,1.1,2.6c0.7,0.7,1.9,1.2,3.5,1.7l2.7,0.9
			c2.5,0.8,4.2,1.8,5.3,3.2c1,1.3,1.5,2.9,1.5,4.5c0,1.2-0.2,2.3-0.7,3.2c-0.5,1-1.1,1.8-2,2.5c-0.9,0.7-1.9,1.2-3,1.6
			s-2.4,0.5-3.8,0.5c-1.4,0-2.8-0.1-4.2-0.4c-1.4-0.2-2.9-0.7-4.3-1.4l1-3.3c1.2,0.6,2.5,1.1,3.6,1.3c1.2,0.3,2.4,0.4,3.7,0.4
			c1.6,0,2.9-0.4,4-1.1c1.1-0.7,1.6-1.8,1.6-3.2c0-0.5-0.1-1-0.2-1.5c-0.2-0.4-0.4-0.9-0.8-1.3c-0.4-0.4-0.9-0.8-1.6-1.1
			c-0.7-0.3-1.5-0.7-2.5-1l-2.7-0.9c-2-0.6-3.5-1.5-4.6-2.6c-1.1-1.1-1.6-2.6-1.6-4.5c0-2.4,0.8-4.3,2.4-5.7
			C795.4,286.3,797.7,285.6,800.7,285.6z"/>
	</g>
	<g>
		<path class="st0" d="M246.5,242.3c-5.5,4.6-14,12.7-21.2,21.9c47.3-13,103.7,0.7,120.4,21.2c12.4,14.4-7.8,26.8-30.7,26.4
			c-15.7-32.3-70.5-44.7-98.5-34.6l-2.9,5.5c-5.2,11.4-24.5-2.3-16-13c5.5-7.5,20.2-20.2,33.6-27.4
			c-54.8-2.6-117.1-35.2-117.1-117.1c0-85.5,67.9-117.4,124.3-117.4s124,32,124,117.4C362.3,206.1,301.6,239.7,246.5,242.3z
			 M318,125.2c0-58.4-34.7-103.7-79.7-103.7s-80,45.3-80,103.7s35,103.7,80,103.7S318,183.6,318,125.2z"/>
		<linearGradient id="SVGID_1_" gradientUnits="userSpaceOnUse" x1="158.3478" y1="161.3384" x2="315.3715" y2="161.3384">
			<stop  offset="0" style="stop-color:#209388"/>
			<stop  offset="0.1994" style="stop-color:#35A085"/>
			<stop  offset="0.5011" style="stop-color:#4EB180"/>
			<stop  offset="0.7765" style="stop-color:#5DBB7E"/>
			<stop  offset="0.9996" style="stop-color:#62BE7D"/>
		</linearGradient>
		<path class="st1" d="M315.4,152.5c-59.6,16.4-91.8-83-154.6-53.2c-1.6,8.2-2.4,16.9-2.4,25.9c0,58.4,35,103.7,80,103.7
			C276.1,229,306.5,197.1,315.4,152.5z"/>
		<path class="st0" d="M89.4,11H6.1v10.6c17.2,2.6,18.1,11.2,18.1,27.9v41.8v109.6v15c0,13,10.5,23.5,23.5,23.5
			c13,0,23.5-10.5,23.5-23.5v-15v-92V49.5c0-16.7,0.9-25.3,18.1-27.9V11z"/>
		<path class="st0" d="M502.5,118.4v-0.7c25.4-6.9,49.9-31,49.9-55.8c0-38.5-41.1-51.2-79.6-50.9h-86.7v10.4
			c17.7,2.1,19.5,10.1,19.5,28.1v151.4c0,18-2.1,25.7-19.5,27.8v10.7h88.3c53.2,0,101.5-15,101.5-65.9
			C575.9,145.1,554.1,120.7,502.5,118.4z M452.6,24.7h16.6c17.6,0,34.3,11.4,34.3,41.4c0,35.9-21.2,47.6-35.9,47.6h-15V24.7z
			 M473.8,225.7c-15.7,0-21.2-7.8-21.2-26.4v-73.1h15c42.7,0,57.7,25.4,57.7,51.2C525.3,222.1,489.1,225.7,473.8,225.7z"/>
		<path class="st0" d="M797,183.6c-9.2,32.8-39.1,45.4-72.1,45.4c-48,0-82-44-82-103.7c0-60,34-103.7,82-103.7
			c33,0,62.9,12.6,72.1,45.4h12.5l-0.4-36.3c-22.8-14.4-56.4-22.8-86.8-22.8c-53.8,0-123.6,26.8-123.6,117.4s69.8,117.4,123.6,117.4
			c30.3,0,63.9-8.5,86.8-22.8l0.4-36.2H797z"/>
		
			<linearGradient id="SVGID_00000013184797656707840690000001117448012926855101_" gradientUnits="userSpaceOnUse" x1="239.668" y1="161.4929" x2="307.0277" y2="121.9678">
			<stop  offset="0.3441" style="stop-color:#1F9488"/>
			<stop  offset="0.6919" style="stop-color:#45AC82"/>
			<stop  offset="1" style="stop-color:#63BE7D"/>
		</linearGradient>
		<path style="fill:url(#SVGID_00000013184797656707840690000001117448012926855101_);" d="M243.1,124c22,18.1,44.1,36.2,72.3,28.5
			c1.5-7.5,2.4-15.4,2.6-23.5C296.7,112,269.9,118,243.1,124z"/>
	</g>
</g>
</svg>
