<svg xmlns="http://www.w3.org/2000/svg" width="3623" height="2915" viewBox="0 0 3623 2915" fill="none"><g clip-path="url(#clip0_404_4)"><path d="M718.416 2422.58C669.557 2422.58 629.749 2462.31 629.749 2511.25C629.749 2560.18 669.483 2599.91 718.416 2599.91C767.348 2599.91 807.082 2560.18 807.082 2511.25C807.082 2462.31 767.348 2422.58 718.416 2422.58ZM718.416 2594.54C672.427 2594.54 635.121 2557.16 635.121 2511.25C635.121 2465.33 672.5 2427.95 718.416 2427.95C764.331 2427.95 801.711 2465.33 801.711 2511.25C801.711 2557.16 764.331 2594.54 718.416 2594.54ZM718.416 2422.58C669.557 2422.58 629.749 2462.31 629.749 2511.25C629.749 2560.18 669.483 2599.91 718.416 2599.91C767.348 2599.91 807.082 2560.18 807.082 2511.25C807.082 2462.31 767.348 2422.58 718.416 2422.58ZM718.416 2594.54C672.427 2594.54 635.121 2557.16 635.121 2511.25C635.121 2465.33 672.5 2427.95 718.416 2427.95C764.331 2427.95 801.711 2465.33 801.711 2511.25C801.711 2557.16 764.331 2594.54 718.416 2594.54ZM718.416 2249C651.235 2249 587.881 2274.24 539.022 2320.15V2319.93C539.022 2284.61 510.325 2255.92 475.006 2255.92H317.76C300.101 2255.92 283.25 2263.2 271.183 2276C259.042 2263.2 242.339 2255.92 224.605 2255.92H64.4905C29.0975 2255.99 0.400391 2284.76 0.400391 2320.01V2369.45C0.400391 2402.42 25.4919 2429.87 57.9417 2433.1V2591.82C25.4919 2595.13 0.400391 2622.65 0.400391 2655.47V2704.25C0.400391 2739.57 29.0975 2768.27 64.4905 2768.27H224.605C259.336 2768.27 287.665 2740.53 288.622 2706.02L316.951 2750.83C328.724 2769.45 348.959 2780.63 371.108 2780.63H426.221C461.54 2780.63 490.237 2751.93 490.237 2716.61V2640.24C536.962 2722.58 623.421 2773.35 718.416 2773.35C863.005 2773.35 980.589 2655.76 980.589 2511.17C980.589 2366.58 863.005 2249.07 718.416 2249.07V2249ZM718.416 2768.05C621.876 2768.05 534.313 2714.55 489.869 2628.46L484.866 2618.68V2716.61C484.866 2748.99 458.523 2775.26 426.221 2775.26H371.108C350.872 2775.26 332.33 2765.03 321.44 2747.96L283.25 2687.62V2704.25C283.25 2736.63 256.908 2762.9 224.605 2762.9H64.4905C32.1143 2762.9 5.77189 2736.56 5.77189 2704.25V2655.47C5.77189 2624.56 29.9804 2598.81 60.8114 2596.9L63.3132 2596.75V2428.25L60.8114 2428.1C29.9804 2426.19 5.77189 2400.51 5.77189 2369.53V2320.08C5.77189 2287.63 32.1143 2261.36 64.4905 2261.36H224.605C241.676 2261.36 257.938 2268.87 269.123 2281.89L271.183 2284.25L273.243 2281.89C284.428 2268.79 300.689 2261.36 317.834 2261.36H475.079C507.455 2261.36 533.724 2287.7 533.724 2320.01V2332.96L538.286 2328.47C586.703 2280.71 650.72 2254.45 718.489 2254.45C860.135 2254.45 975.365 2369.67 975.365 2511.32C975.365 2652.97 860.135 2768.2 718.489 2768.2L718.416 2768.05ZM718.416 2422.51C669.557 2422.51 629.749 2462.24 629.749 2511.17C629.749 2560.11 669.483 2599.84 718.416 2599.84C767.348 2599.84 807.082 2560.11 807.082 2511.17C807.082 2462.24 767.348 2422.51 718.416 2422.51ZM718.416 2594.47C672.427 2594.47 635.121 2557.09 635.121 2511.17C635.121 2465.26 672.5 2427.88 718.416 2427.88C764.331 2427.88 801.711 2465.26 801.711 2511.17C801.711 2557.09 764.331 2594.47 718.416 2594.47Z" fill="#1D3666"></path><path d="M718.415 2254.45C650.646 2254.45 586.63 2280.71 538.213 2328.47L533.651 2332.96V2320.01C533.651 2287.63 507.308 2261.36 475.006 2261.36H317.76C300.616 2261.36 284.428 2268.87 273.169 2281.89L271.109 2284.25L269.049 2281.89C257.864 2268.79 241.603 2261.36 224.532 2261.36H64.4903C32.1142 2261.36 5.77173 2287.63 5.77173 2320.01V2369.45C5.77173 2400.43 29.9803 2426.11 60.8112 2428.03L63.313 2428.17V2596.82L60.8112 2596.97C29.9803 2598.88 5.77173 2624.64 5.77173 2655.54V2704.33C5.77173 2736.7 32.1142 2762.97 64.4903 2762.97H224.605C256.981 2762.97 283.25 2736.63 283.25 2704.33V2687.7L321.439 2748.03C332.256 2765.18 350.872 2775.33 371.107 2775.33H426.22C458.597 2775.33 484.865 2748.99 484.865 2716.69V2618.75L489.869 2628.54C534.313 2714.63 621.802 2768.12 718.415 2768.12C860.061 2768.12 975.291 2652.89 975.291 2511.25C975.291 2369.6 859.988 2254.45 718.415 2254.45ZM718.415 2599.99C669.557 2599.99 629.749 2560.25 629.749 2511.32C629.749 2462.39 669.483 2422.65 718.415 2422.65C767.348 2422.65 807.082 2462.39 807.082 2511.32C807.082 2560.25 767.348 2599.99 718.415 2599.99Z" fill="#FCFDFC"></path><path d="M1442.39 2654.81C1440.03 2640.68 1432.97 2628.17 1422.82 2618.9C1411.78 2608.89 1397.06 2602.71 1380.95 2602.71H1376.39L1344.3 2553.26C1381.46 2531.04 1404.49 2490.79 1404.49 2447.38V2429.57C1404.49 2333.84 1326.64 2256.06 1230.91 2256.06H1037.91C1003.55 2256.06 975.584 2284.03 975.584 2318.39V2371.59C975.584 2403.3 999.719 2430.01 1030.92 2433.47V2592.48C999.719 2596.01 975.584 2622.72 975.584 2654.44V2706.31C975.584 2740.68 1003.55 2768.64 1037.91 2768.64H1198.54C1215.68 2768.64 1231.94 2761.57 1243.72 2749.21L1253.36 2768.64H1380.95C1415.31 2768.64 1443.27 2740.68 1443.27 2706.31V2665.11C1443.27 2661.65 1442.98 2658.19 1442.39 2654.88V2654.81ZM1437.9 2706.24C1437.9 2737.66 1412.37 2763.27 1380.87 2763.27H1256.52L1244.82 2739.57L1242.17 2742.74C1231.21 2755.83 1215.24 2763.27 1198.32 2763.27H1037.69C1006.27 2763.27 980.661 2737.73 980.661 2706.24V2654.36C980.661 2624.64 1003.91 2599.62 1033.57 2597.49L1036 2597.34V2428.39L1033.57 2428.25C1003.91 2426.19 980.661 2401.17 980.661 2371.44V2318.24C980.661 2286.82 1006.19 2261.29 1037.69 2261.29H1230.69C1323.48 2261.29 1398.98 2336.71 1398.98 2429.5V2447.3C1398.98 2489.69 1376.02 2528.98 1339.01 2549.88L1336.58 2551.35L1373.37 2608.01H1380.8C1412.22 2608.01 1437.83 2633.54 1437.83 2665.03V2706.24H1437.9Z" fill="#1D3666"></path><path d="M1437.9 2665.03V2706.24C1437.9 2737.66 1412.37 2763.27 1380.87 2763.27H1256.52L1244.82 2739.57L1242.17 2742.74C1231.21 2755.83 1215.24 2763.27 1198.32 2763.27H1037.69C1006.27 2763.27 980.661 2737.73 980.661 2706.24V2654.36C980.661 2624.64 1003.91 2599.62 1033.57 2597.49L1035.99 2597.34V2428.39L1033.57 2428.25C1003.91 2426.19 980.661 2401.17 980.661 2371.44V2318.24C980.661 2286.82 1006.19 2261.29 1037.69 2261.29H1230.69C1323.48 2261.29 1398.98 2336.71 1398.98 2429.5V2447.3C1398.98 2489.69 1376.02 2528.98 1339.01 2549.88L1336.58 2551.35L1373.37 2608.01H1380.8C1412.22 2608.01 1437.83 2633.54 1437.83 2665.03H1437.9Z" fill="#FCFDFC"></path><path d="M1662.25 2422.58C1613.4 2422.58 1573.59 2462.31 1573.59 2511.25C1573.59 2560.18 1613.32 2599.91 1662.25 2599.91C1711.19 2599.91 1750.92 2560.18 1750.92 2511.25C1750.92 2462.31 1711.19 2422.58 1662.25 2422.58ZM1662.25 2594.54C1616.26 2594.54 1578.96 2557.16 1578.96 2511.25C1578.96 2465.33 1616.34 2427.95 1662.25 2427.95C1708.17 2427.95 1745.55 2465.33 1745.55 2511.25C1745.55 2557.16 1708.17 2594.54 1662.25 2594.54ZM2136.79 2425.01C2130.24 2423.1 2124.2 2420.23 2118.83 2416.55L2117.36 2415.44L2115.89 2416.55C2111.77 2419.34 2107.28 2421.62 2102.57 2423.46L2100.88 2424.13V2606.02H2138.77V2425.67L2136.86 2425.08L2136.79 2425.01ZM2133.4 2600.72H2106.18V2427.8C2110.15 2426.19 2113.83 2424.2 2117.36 2421.99C2122.22 2425.16 2127.59 2427.73 2133.4 2429.57V2600.72ZM2600.06 2427.07L2598 2426.55C2593.95 2425.52 2589.83 2423.98 2585.86 2421.84L2584.46 2421.18L2583.21 2421.92C2577.62 2425.3 2571.44 2427.66 2565.03 2428.69L2562.83 2429.06V2599.55L2565.03 2599.91C2570.18 2600.8 2575.19 2602.42 2579.9 2604.84L2580.49 2605.14H2581.96L2582.62 2604.7C2587.92 2601.46 2593.51 2599.18 2599.32 2597.78L2601.38 2597.26L2600.13 2427L2600.06 2427.07ZM2581 2599.4C2576.88 2597.41 2572.54 2596.01 2568.12 2595.06V2433.62C2574.01 2432.37 2579.53 2430.31 2584.75 2427.29C2587.99 2428.91 2591.38 2430.31 2594.76 2431.26L2596.01 2593.22C2590.79 2594.62 2585.78 2596.75 2581 2599.55V2599.4ZM2600.06 2427.07L2598 2426.55C2593.95 2425.52 2589.83 2423.98 2585.86 2421.84L2584.46 2421.18L2583.21 2421.92C2577.62 2425.3 2571.44 2427.66 2565.03 2428.69L2562.83 2429.06V2599.55L2565.03 2599.91C2570.18 2600.8 2575.19 2602.42 2579.9 2604.84L2580.49 2605.14H2581.96L2582.62 2604.7C2587.92 2601.46 2593.51 2599.18 2599.32 2597.78L2601.38 2597.26L2600.13 2427L2600.06 2427.07ZM2581 2599.4C2576.88 2597.41 2572.54 2596.01 2568.12 2595.06V2433.62C2574.01 2432.37 2579.53 2430.31 2584.75 2427.29C2587.99 2428.91 2591.38 2430.31 2594.76 2431.26L2596.01 2593.22C2590.79 2594.62 2585.78 2596.75 2581 2599.55V2599.4ZM2118.83 2416.55L2117.36 2415.44L2115.89 2416.55C2111.77 2419.34 2107.28 2421.62 2102.57 2423.46L2100.88 2424.13V2606.02H2138.77V2425.67L2136.86 2425.08C2130.31 2423.17 2124.28 2420.3 2118.91 2416.62L2118.83 2416.55ZM2133.33 2600.72H2106.1V2427.8C2110.08 2426.19 2113.75 2424.2 2117.29 2421.99C2122.14 2425.16 2127.51 2427.73 2133.33 2429.57V2600.72ZM1662.18 2422.58C1613.32 2422.58 1573.51 2462.31 1573.51 2511.25C1573.51 2560.18 1613.25 2599.91 1662.18 2599.91C1711.11 2599.91 1750.85 2560.18 1750.85 2511.25C1750.85 2462.31 1711.11 2422.58 1662.18 2422.58ZM1662.18 2594.54C1616.19 2594.54 1578.89 2557.16 1578.89 2511.25C1578.89 2465.33 1616.26 2427.95 1662.18 2427.95C1708.1 2427.95 1745.48 2465.33 1745.48 2511.25C1745.48 2557.16 1708.1 2594.54 1662.18 2594.54ZM3560.9 2591.53H3553.17L3488.86 2415.96C3500.63 2404.18 3507.03 2388.73 3507.03 2372.1V2318.02C3507.03 2283.8 3479.15 2255.92 3444.93 2255.92H3258.11C3223.89 2255.92 3196 2283.8 3196 2318.02V2371.59C3196 2387.41 3201.89 2402.27 3212.63 2413.75L3149.94 2592.41H3146.55C3139.78 2592.41 3133.24 2593.51 3126.98 2595.57C3123.82 2594.32 3120.65 2593.29 3117.34 2592.56V2431.19C3145.6 2424.71 3165.91 2399.4 3165.91 2370.26V2318.61C3165.91 2284.1 3137.8 2256.06 3103.29 2256.06H2928.6L2864.37 2416.84L2806.53 2256.06H2612.2C2602.27 2256.06 2592.48 2258.49 2583.72 2262.98C2575.48 2258.49 2566.14 2256.06 2556.57 2256.06H2385.57C2370.63 2256.06 2356.58 2261.8 2345.83 2272.1C2333.47 2261.73 2317.94 2256.06 2301.83 2256.06H2154C2140.91 2256.06 2128.25 2259.74 2117.29 2266.81C2106.32 2259.74 2093.59 2256.06 2080.5 2256.06H1929.8C1892.2 2256.06 1861.51 2286.67 1861.51 2324.35V2341.27C1811.48 2282.63 1739.22 2249.15 1662.18 2249.15C1517.66 2249.15 1400.01 2366.81 1400.01 2511.32C1400.01 2549.36 1408.03 2585.86 1422.74 2618.9C1428.26 2631.41 1434.88 2643.47 1442.32 2654.88C1471.01 2698.96 1512.96 2734.2 1564.46 2754.8C1580.58 2847.3 1660.19 2914.26 1754.31 2914.26H1850.85C1896.83 2914.26 1934.29 2876.8 1934.29 2830.81V2812.42C1934.29 2766.43 1896.83 2728.98 1850.85 2728.98H1808.02C1879.98 2680.27 1924.28 2597.71 1924.28 2511.32C1924.28 2483.73 1919.94 2456.5 1911.48 2430.38C1917.36 2432 1923.47 2432.88 1929.8 2432.88H1931.12L1933.77 2615C1935.02 2699.69 2005 2768.64 2089.77 2768.64H2159.82C2245.83 2768.64 2315.74 2698.66 2315.74 2612.64V2431.34C2326.63 2429.13 2336.78 2424.2 2345.39 2417.06C2352.9 2424.71 2362.61 2430.01 2373.06 2432.37V2594.54C2347.08 2600.36 2328.47 2623.46 2328.47 2650.32V2711.46C2328.47 2742.96 2354.07 2768.56 2385.57 2768.56H2556.57C2566.14 2768.56 2575.48 2766.14 2583.72 2761.65C2592.48 2766.14 2602.27 2768.56 2612.2 2768.56H2773.35C2785.71 2768.56 2797.41 2765.03 2807.63 2758.34L2809.11 2761.79H2902.85L2905.13 2757.09C2915.73 2764.59 2928.16 2768.56 2941.19 2768.56H3103.21C3110.72 2768.56 3118 2767.31 3124.92 2764.74C3131.84 2767.31 3139.05 2768.56 3146.41 2768.56H3305.49C3323.08 2768.56 3339.63 2761.21 3351.33 2748.26C3363.11 2761.21 3379.66 2768.56 3397.25 2768.56H3560.75C3594.96 2768.56 3622.85 2740.68 3622.85 2706.46V2653.56C3622.85 2619.34 3594.96 2591.45 3560.75 2591.45L3560.9 2591.53ZM3617.63 2706.53C3617.63 2737.81 3592.17 2763.27 3560.9 2763.27H3397.4C3380.4 2763.27 3364.43 2755.76 3353.54 2742.59L3351.48 2740.09L3349.42 2742.59C3338.6 2755.76 3322.71 2763.27 3305.64 2763.27H3146.55C3139.49 2763.27 3132.57 2762.02 3126.02 2759.37L3125.07 2759L3124.11 2759.37C3117.49 2762.02 3110.5 2763.27 3103.36 2763.27H2941.33C2928.38 2763.27 2916.17 2759 2905.94 2750.98L2903.29 2748.92L2899.61 2756.5H2812.71L2809.99 2750.17L2807.27 2752.23C2797.41 2759.51 2785.71 2763.34 2773.42 2763.34H2612.27C2602.78 2763.34 2593.29 2760.91 2585.05 2756.42L2584.39 2756.13H2582.99L2582.33 2756.5C2574.53 2760.99 2565.62 2763.41 2556.57 2763.41H2385.57C2357.02 2763.41 2333.77 2740.16 2333.77 2711.61V2650.46C2333.77 2625.45 2351.57 2604.03 2376.22 2599.47L2378.43 2599.1V2428.03L2376.22 2427.66C2365.26 2425.67 2355.03 2420.01 2347.53 2411.69L2345.76 2409.63L2343.77 2411.47C2335.02 2419.34 2324.2 2424.57 2312.65 2426.55L2310.44 2426.92V2612.64C2310.44 2695.72 2242.89 2763.27 2159.89 2763.27H2089.84C2008.02 2763.27 1940.47 2696.67 1939.22 2614.85L1936.49 2427.51H1929.95C1922.44 2427.51 1915.16 2426.26 1908.39 2423.68L1903.01 2421.7L1904.85 2427.07C1914.27 2454.22 1919.06 2482.55 1919.06 2511.32C1919.06 2598.81 1872.55 2682.4 1797.79 2729.34L1789.92 2734.27H1850.99C1894.04 2734.27 1929.06 2769.3 1929.06 2812.35V2830.74C1929.06 2873.79 1894.04 2908.81 1850.99 2908.81H1754.45C1662.47 2908.81 1584.77 2843.03 1569.69 2752.38L1569.47 2750.9L1567.99 2750.39C1469.25 2711.46 1405.45 2617.65 1405.45 2511.32C1405.45 2369.67 1520.68 2254.45 1662.33 2254.45C1740.25 2254.45 1813.1 2289.4 1862.25 2350.32L1867.03 2356.28V2324.35C1867.03 2289.62 1895.29 2261.44 1929.95 2261.44H2080.64C2093.22 2261.44 2105.44 2265.19 2115.96 2272.25L2117.43 2273.28L2118.91 2272.25C2129.28 2265.19 2141.49 2261.44 2154.15 2261.44H2301.98C2317.65 2261.44 2332.59 2267.25 2344.29 2277.84L2346.27 2279.61L2348.04 2277.7C2358.05 2267.25 2371.37 2261.44 2385.71 2261.44H2556.72C2565.77 2261.44 2574.67 2263.86 2582.47 2268.35L2583.14 2268.72H2584.53L2585.12 2268.43C2593.36 2263.86 2602.86 2261.51 2612.35 2261.51H2802.93L2864.29 2432L2932.43 2261.51H3103.44C3135 2261.51 3160.68 2287.19 3160.68 2318.76V2370.41C3160.68 2397.78 3141.11 2421.48 3114.33 2426.63L3112.12 2427.07V2597.19L3114.33 2597.63C3118.3 2598.37 3122.2 2599.62 3125.88 2601.24L3126.83 2601.68L3127.86 2601.31C3133.82 2599.18 3140.15 2598.07 3146.63 2598.07H3153.84L3218.89 2412.72L3217.71 2411.54C3207.19 2400.87 3201.45 2386.82 3201.45 2371.88V2318.31C3201.45 2287.04 3226.91 2261.58 3258.18 2261.58H3445C3476.28 2261.58 3501.74 2287.04 3501.74 2318.31V2372.4C3501.74 2388.07 3495.41 2402.71 3484 2413.6L3482.75 2414.78L3549.56 2597.12H3561.04C3592.32 2597.12 3617.77 2622.58 3617.77 2653.85V2706.76L3617.63 2706.53ZM2598 2426.63C2593.95 2425.6 2589.83 2424.05 2585.86 2421.92L2584.46 2421.26L2583.21 2421.99C2577.62 2425.38 2571.44 2427.73 2565.03 2428.76L2562.83 2429.13V2599.62L2565.03 2599.99C2570.18 2600.87 2575.19 2602.49 2579.9 2604.92L2580.49 2605.21H2581.96L2582.62 2604.77C2587.92 2601.53 2593.51 2599.25 2599.32 2597.85L2601.38 2597.34L2600.13 2427.07L2598.07 2426.55L2598 2426.63ZM2581 2599.55C2576.88 2597.56 2572.54 2596.16 2568.12 2595.2V2433.62C2574.01 2432.37 2579.53 2430.31 2584.75 2427.29C2587.99 2428.91 2591.38 2430.31 2594.76 2431.26L2596.01 2593.22C2590.79 2594.62 2585.78 2596.75 2581 2599.55ZM2118.83 2416.69L2117.36 2415.59L2115.89 2416.69C2111.77 2419.49 2107.28 2421.77 2102.57 2423.61L2100.88 2424.27V2606.17H2138.77V2425.67L2136.86 2425.08C2130.31 2423.17 2124.28 2420.3 2118.91 2416.62L2118.83 2416.69ZM2133.33 2600.87H2106.1V2427.8C2110.08 2426.19 2113.75 2424.2 2117.29 2421.99C2122.14 2425.16 2127.51 2427.73 2133.33 2429.57V2600.72V2600.87ZM1662.18 2422.73C1613.32 2422.73 1573.51 2462.46 1573.51 2511.39C1573.51 2560.33 1613.25 2600.06 1662.18 2600.06C1711.11 2600.06 1750.85 2560.33 1750.85 2511.39C1750.85 2462.46 1711.11 2422.73 1662.18 2422.73ZM1662.18 2594.69C1616.19 2594.69 1578.89 2557.31 1578.89 2511.39C1578.89 2465.48 1616.26 2428.1 1662.18 2428.1C1708.1 2428.1 1745.48 2465.48 1745.48 2511.39C1745.48 2557.31 1708.1 2594.69 1662.18 2594.69ZM1662.18 2422.73C1613.32 2422.73 1573.51 2462.46 1573.51 2511.39C1573.51 2560.33 1613.25 2600.06 1662.18 2600.06C1711.11 2600.06 1750.85 2560.33 1750.85 2511.39C1750.85 2462.46 1711.11 2422.73 1662.18 2422.73ZM1662.18 2594.69C1616.19 2594.69 1578.89 2557.31 1578.89 2511.39C1578.89 2465.48 1616.26 2428.1 1662.18 2428.1C1708.1 2428.1 1745.48 2465.48 1745.48 2511.39C1745.48 2557.31 1708.1 2594.69 1662.18 2594.69ZM2136.71 2425.16C2130.16 2423.24 2124.13 2420.37 2118.76 2416.69L2117.29 2415.59L2115.81 2416.69C2111.69 2419.49 2107.21 2421.77 2102.5 2423.61L2100.8 2424.27V2606.17H2138.7V2425.67L2136.79 2425.08L2136.71 2425.16ZM2133.33 2600.87H2106.1V2427.8C2110.08 2426.19 2113.75 2424.2 2117.29 2421.99C2122.14 2425.16 2127.51 2427.73 2133.33 2429.57V2600.72V2600.87ZM2599.99 2427.22L2597.93 2426.7C2593.88 2425.67 2589.76 2424.13 2585.78 2421.99L2584.39 2421.33L2583.14 2422.07C2577.54 2425.45 2571.36 2427.8 2564.96 2428.83L2562.75 2429.2V2599.69L2564.96 2600.06C2570.11 2600.94 2575.11 2602.56 2579.82 2604.99L2580.41 2605.29H2581.88L2582.55 2604.84C2587.84 2601.61 2593.44 2599.32 2599.25 2597.93L2601.31 2597.41L2600.06 2427.14L2599.99 2427.22ZM2580.93 2599.55C2576.81 2597.56 2572.47 2596.16 2568.05 2595.2V2433.62C2573.94 2432.37 2579.46 2430.31 2584.68 2427.29C2587.92 2428.91 2591.3 2430.31 2594.69 2431.26L2595.94 2593.22C2590.71 2594.62 2585.71 2596.75 2580.93 2599.55ZM2136.71 2425.08C2130.16 2423.17 2124.13 2420.3 2118.76 2416.62L2117.29 2415.52L2115.81 2416.62C2111.69 2419.42 2107.21 2421.7 2102.5 2423.54L2100.8 2424.2V2606.09H2138.7V2425.67L2136.79 2425.08H2136.71ZM2133.33 2600.8H2106.1V2427.8C2110.08 2426.19 2113.75 2424.2 2117.29 2421.99C2122.14 2425.16 2127.51 2427.73 2133.33 2429.57V2600.72V2600.8ZM2599.99 2427.14L2597.93 2426.63C2593.88 2425.6 2589.76 2424.05 2585.78 2421.92L2584.39 2421.26L2583.14 2421.99C2577.54 2425.38 2571.36 2427.73 2564.96 2428.76L2562.75 2429.13V2599.62L2564.96 2599.99C2570.11 2600.87 2575.11 2602.49 2579.82 2604.92L2580.41 2605.21H2581.88L2582.55 2604.77C2587.84 2601.53 2593.44 2599.25 2599.25 2597.85L2601.31 2597.34L2600.06 2427.07L2599.99 2427.14ZM2580.93 2599.47C2576.81 2597.49 2572.47 2596.09 2568.05 2595.13V2433.62C2573.94 2432.37 2579.46 2430.31 2584.68 2427.29C2587.92 2428.91 2591.3 2430.31 2594.69 2431.26L2595.94 2593.22C2590.71 2594.62 2585.71 2596.75 2580.93 2599.55V2599.47ZM1662.18 2422.58C1613.32 2422.58 1573.51 2462.31 1573.51 2511.25C1573.51 2560.18 1613.25 2599.91 1662.18 2599.91C1711.11 2599.91 1750.85 2560.18 1750.85 2511.25C1750.85 2462.31 1711.11 2422.58 1662.18 2422.58ZM1662.18 2594.54C1616.19 2594.54 1578.89 2557.16 1578.89 2511.25C1578.89 2465.33 1616.26 2427.95 1662.18 2427.95C1708.1 2427.95 1745.48 2465.33 1745.48 2511.25C1745.48 2557.16 1708.1 2594.54 1662.18 2594.54Z" fill="#1D3666"></path><path d="M3560.9 2596.9H3549.42L3482.61 2414.56L3483.86 2413.38C3495.26 2402.49 3501.59 2387.85 3501.59 2372.18V2318.09C3501.59 2286.82 3476.13 2261.36 3444.86 2261.36H3258.03C3226.76 2261.36 3201.3 2286.82 3201.3 2318.09V2371.66C3201.3 2386.6 3207.04 2400.65 3217.56 2411.32L3218.74 2412.5L3153.69 2597.85H3146.48C3140.01 2597.85 3133.68 2598.96 3127.72 2601.09L3126.69 2601.46L3125.73 2601.02C3121.98 2599.4 3118.08 2598.22 3114.18 2597.41L3111.97 2596.97V2426.85L3114.18 2426.41C3141.04 2421.26 3160.54 2397.56 3160.54 2370.19V2318.54C3160.54 2286.97 3134.86 2261.29 3103.29 2261.29H2932.28L2864.15 2431.78L2802.78 2261.29H2612.2C2602.71 2261.29 2593.22 2263.72 2584.98 2268.2L2584.39 2268.5H2582.99L2582.33 2268.13C2574.53 2263.64 2565.62 2261.21 2556.57 2261.21H2385.57C2371.22 2261.21 2357.9 2266.95 2347.89 2277.48L2346.13 2279.39L2344.14 2277.62C2332.52 2267.03 2317.5 2261.21 2301.83 2261.21H2154C2141.35 2261.21 2129.21 2264.97 2118.76 2272.03L2117.29 2273.06L2115.82 2272.03C2105.37 2264.97 2093.15 2261.21 2080.5 2261.21H1929.8C1895.07 2261.21 1866.89 2289.47 1866.89 2324.13V2356.06L1862.1 2350.1C1812.95 2289.18 1740.1 2254.22 1662.18 2254.22C1520.54 2254.22 1405.31 2369.45 1405.31 2511.1C1405.31 2617.43 1469.1 2711.24 1567.85 2750.17L1569.32 2750.68L1569.54 2752.16C1584.63 2842.81 1662.4 2908.59 1754.31 2908.59H1850.85C1893.89 2908.59 1928.92 2873.57 1928.92 2830.52V2812.12C1928.92 2769.08 1893.89 2734.05 1850.85 2734.05H1789.77L1797.65 2729.12C1872.41 2682.18 1918.91 2598.59 1918.91 2511.1C1918.91 2482.26 1914.13 2453.93 1904.71 2426.85L1902.87 2421.48L1908.24 2423.46C1915.01 2426.04 1922.29 2427.29 1929.8 2427.29H1936.35L1939.07 2614.63C1940.32 2696.53 2007.87 2763.05 2089.69 2763.05H2159.74C2242.82 2763.05 2310.29 2695.5 2310.29 2612.42V2426.92L2312.5 2426.55C2324.05 2424.49 2334.87 2419.27 2343.63 2411.47L2345.61 2409.63L2347.38 2411.69C2354.88 2419.93 2365.11 2425.67 2376.08 2427.66L2378.28 2428.03V2599.03L2376.08 2599.4C2351.5 2603.96 2333.62 2625.37 2333.62 2650.39V2711.54C2333.62 2740.09 2356.87 2763.34 2385.42 2763.34H2556.43C2565.48 2763.34 2574.38 2760.91 2582.18 2756.42L2582.84 2756.06H2584.24L2584.9 2756.35C2593.14 2760.91 2602.64 2763.27 2612.13 2763.27H2773.27C2785.56 2763.27 2797.26 2759.44 2807.12 2752.16L2809.84 2750.09L2812.57 2756.42H2899.47L2903.15 2748.84L2905.79 2750.9C2916.02 2758.92 2928.24 2763.19 2941.19 2763.19H3103.22C3110.35 2763.19 3117.34 2761.94 3123.97 2759.29L3124.92 2758.92L3125.88 2759.29C3132.43 2761.94 3139.42 2763.19 3146.41 2763.19H3305.49C3322.49 2763.19 3338.46 2755.69 3349.27 2742.52L3351.33 2740.01L3353.39 2742.52C3364.21 2755.69 3380.25 2763.19 3397.25 2763.19H3560.75C3592.02 2763.19 3617.48 2737.73 3617.48 2706.46V2653.56C3617.48 2622.28 3592.02 2596.82 3560.75 2596.82L3560.9 2596.9ZM1662.18 2599.91C1613.32 2599.91 1573.51 2560.18 1573.51 2511.25C1573.51 2462.31 1613.25 2422.58 1662.18 2422.58C1711.11 2422.58 1750.85 2462.31 1750.85 2511.25C1750.85 2560.18 1711.11 2599.91 1662.18 2599.91ZM2138.63 2606.09H2100.73V2424.2L2102.42 2423.54C2107.21 2421.7 2111.62 2419.42 2115.74 2416.62L2117.21 2415.52L2118.69 2416.62C2124.06 2420.3 2130.09 2423.17 2136.64 2425.08L2138.55 2425.67V2606.17L2138.63 2606.09ZM2599.18 2597.85C2593.36 2599.18 2587.77 2601.53 2582.47 2604.77L2581.81 2605.21H2580.34L2579.75 2604.92C2575.04 2602.49 2570.11 2600.87 2564.89 2599.99L2562.68 2599.62V2429.13L2564.89 2428.76C2571.36 2427.66 2577.47 2425.38 2583.06 2421.99L2584.31 2421.26L2585.71 2421.92C2589.69 2424.05 2593.81 2425.6 2597.85 2426.63L2599.91 2427.14L2601.16 2597.41L2599.1 2597.93L2599.18 2597.85Z" fill="#FCFDFC"></path><path d="M187.812 2638H219.08C228.718 2638 236.516 2645.8 236.516 2655.45V2704.26C236.516 2713.9 228.718 2721.71 219.08 2721.71H58.9884C49.3506 2721.71 41.552 2713.9 41.552 2704.26V2655.45C41.552 2645.8 49.3506 2638 58.9884 2638H99.0113V2386.74H58.9884C49.3506 2386.74 41.552 2378.93 41.552 2369.29V2319.74C41.552 2310.1 49.3506 2302.29 58.9884 2302.29H219.08C228.718 2302.29 236.516 2310.1 236.516 2319.74V2356.99C236.516 2360.23 237.399 2363.47 239.165 2366.27L346.432 2538.25V2386H312.222C302.584 2386 294.785 2378.2 294.785 2368.55V2319.74C294.785 2310.1 302.584 2302.29 312.222 2302.29H469.444C479.082 2302.29 486.88 2310.1 486.88 2319.74V2371.42C486.88 2381.07 479.082 2388.87 469.444 2388.87H438.176V2716.63C438.176 2726.27 430.377 2734.07 420.74 2734.07H365.561C359.602 2734.07 354.01 2730.98 350.773 2725.98L189.21 2470.52L187.739 2638H187.812Z" fill="#00407A"></path><path d="M1072.28 2638.84V2387.04H1032.84C1024.17 2387.04 1017.12 2379.96 1017.12 2371.27V2318.06C1017.12 2309.37 1024.17 2302.29 1032.84 2302.29H1225.52C1295.52 2302.29 1352.3 2359.26 1352.3 2429.48V2447.32C1352.3 2489.69 1318 2524.1 1275.76 2524.1V2541.57L1345.54 2649.45H1375.37C1384.03 2649.45 1391.09 2656.53 1391.09 2665.22V2706.56C1391.09 2715.26 1384.03 2722.33 1375.37 2722.33H1276.79L1184.75 2535.75H1158.6V2637.81H1193.27C1201.94 2637.81 1208.99 2644.88 1208.99 2653.58V2706.56C1208.99 2715.26 1201.94 2722.33 1193.27 2722.33H1032.91C1024.24 2722.33 1017.19 2715.26 1017.19 2706.56V2654.54C1017.19 2645.84 1024.24 2638.77 1032.91 2638.77H1072.36L1072.28 2638.84ZM1258.28 2436.93V2401.48C1258.28 2390.36 1249.24 2381.29 1238.15 2381.29H1161.39V2457.12H1238.15C1249.24 2457.12 1258.28 2448.05 1258.28 2436.93Z" fill="#00407A"></path><path d="M1971.99 2386.07H1924.92C1912.95 2386.07 1903.26 2376.34 1903.26 2364.33V2324.03C1903.26 2312.02 1912.95 2302.29 1924.92 2302.29H2075.32C2087.29 2302.29 2096.98 2312.02 2096.98 2324.03V2364.33C2096.98 2376.34 2087.29 2386.07 2075.32 2386.07H2054.39V2610.64C2054.39 2630.97 2070.84 2647.47 2091.11 2647.47H2137.81C2158.08 2647.47 2174.53 2630.97 2174.53 2610.64V2386.07H2148.75C2136.78 2386.07 2127.09 2376.34 2127.09 2364.33V2324.03C2127.09 2312.02 2136.78 2302.29 2148.75 2302.29H2296.21C2308.18 2302.29 2317.87 2312.02 2317.87 2324.03V2364.33C2317.87 2376.34 2308.18 2386.07 2296.21 2386.07H2263.68V2612.77C2263.68 2673.26 2214.77 2722.33 2154.48 2722.33H2084.57C2024.87 2722.33 1976.25 2674.22 1975.37 2614.39L1972.07 2386.14L1971.99 2386.07Z" fill="#00407A"></path><path d="M2414.08 2640.65V2387.07H2379.97C2374.15 2387.07 2369.36 2382.35 2369.36 2376.46V2312.9C2369.36 2307.08 2374.08 2302.29 2379.97 2302.29H2551.16C2556.98 2302.29 2561.77 2307.01 2561.77 2312.9V2377.49C2561.77 2383.31 2557.05 2388.1 2551.16 2388.1H2516.1V2640.65H2551.16C2556.98 2640.65 2561.77 2645.36 2561.77 2651.26V2711.72C2561.77 2717.54 2557.05 2722.33 2551.16 2722.33H2379.97C2374.15 2722.33 2369.36 2717.62 2369.36 2711.72V2650.52C2369.36 2644.55 2374.22 2639.84 2380.19 2639.91L2414.08 2640.65Z" fill="#00407A"></path><path d="M2637.31 2637.76H2606.73C2597.89 2637.76 2590.67 2644.91 2590.67 2653.82V2706.27C2590.67 2715.11 2597.82 2722.33 2606.73 2722.33H2768.01C2776.85 2722.33 2784.07 2715.19 2784.07 2706.27V2653.82C2784.07 2644.98 2776.93 2637.76 2768.01 2637.76H2737.44V2504.65H2744.21L2834.62 2715.48H2868.65L2963.92 2520.19H2968.78V2636.81H2936.22C2927.38 2636.81 2920.15 2643.95 2920.15 2652.86V2706.27C2920.15 2715.11 2927.3 2722.33 2936.22 2722.33H3098.53C3107.37 2722.33 3114.59 2715.19 3114.59 2706.27V2653.82C3114.59 2644.98 3107.44 2637.76 3098.53 2637.76H3065.96V2386.13H3098.53C3107.37 2386.13 3114.59 2378.98 3114.59 2370.07V2318.35C3114.59 2309.51 3107.44 2302.29 3098.53 2302.29H2955.23L2867.77 2521.15H2847.36L2768.68 2302.29H2606.88C2598.04 2302.29 2590.82 2309.44 2590.82 2318.35V2371.1C2590.82 2379.94 2597.97 2387.16 2606.88 2387.16H2635.54L2637.46 2637.84L2637.31 2637.76Z" fill="#00407A"></path><path d="M3125.43 2706.86V2654.84C3125.43 2646.22 3132.34 2639.3 3140.95 2639.3H3177.36L3263.72 2392.92V2387.1H3252.54C3243.93 2387.1 3237.02 2380.17 3237.02 2371.55V2317.84C3237.02 2309.22 3243.93 2302.29 3252.54 2302.29H3439.31C3447.91 2302.29 3454.83 2309.22 3454.83 2317.84V2371.99C3454.83 2380.61 3447.91 2387.54 3439.31 2387.54H3427.17V2398.22L3515 2638.26H3555.24C3563.84 2638.26 3570.76 2645.19 3570.76 2653.81V2706.78C3570.76 2715.41 3563.84 2722.33 3555.24 2722.33H3391.79C3383.18 2722.33 3376.26 2715.41 3376.26 2706.78V2654.77C3376.26 2646.15 3383.18 2639.22 3391.79 2639.22H3424.74V2626.11L3403.41 2584.77H3288.44L3268.06 2630.97V2638.26H3300.06C3308.66 2638.26 3315.58 2645.19 3315.58 2653.81V2706.78C3315.58 2715.41 3308.66 2722.33 3300.06 2722.33H3140.95C3132.34 2722.33 3125.43 2715.41 3125.43 2706.78V2706.86ZM3316.53 2505.2H3375.75V2494.52L3345.22 2426.52L3316.61 2495.99V2505.2H3316.53Z" fill="#00407A"></path><path d="M928.595 2511.41C928.595 2630.34 832.159 2726.85 713.157 2726.85C594.156 2726.85 497.72 2630.41 497.72 2511.41C497.72 2392.41 594.156 2295.97 713.157 2295.97C832.159 2295.97 928.595 2392.41 928.595 2511.41ZM713.157 2381.68C641.492 2381.68 583.424 2439.74 583.424 2511.41C583.424 2583.07 641.492 2641.14 713.157 2641.14C784.823 2641.14 842.89 2583.07 842.89 2511.41C842.89 2439.74 784.823 2381.68 713.157 2381.68Z" fill="#00407A"></path><path d="M1845.64 2775.54H1739.69C1719.8 2775.54 1703.73 2759.51 1703.73 2739.65V2721.93C1800.4 2700.45 1872.61 2614.41 1872.61 2511.52C1872.61 2392.53 1775.94 2295.97 1656.73 2295.97C1537.51 2295.97 1440.77 2392.46 1440.77 2511.52C1440.77 2611.91 1509.59 2696.34 1602.64 2720.31V2721.78C1602.64 2802.38 1668.15 2867.76 1748.9 2867.76H1845.57C1865.91 2867.76 1882.48 2851.29 1882.48 2830.92V2812.53C1882.48 2792.16 1865.91 2775.69 1845.57 2775.69L1845.64 2775.54ZM1526.68 2511.52C1526.68 2439.82 1584.89 2381.72 1656.73 2381.72C1728.56 2381.72 1786.77 2439.82 1786.77 2511.52C1786.77 2583.23 1728.49 2641.33 1656.73 2641.33C1584.96 2641.33 1526.68 2583.23 1526.68 2511.52Z" fill="#00407A"></path></g><g clip-path="url(#clip1_404_4)"><path d="M3062 1273.53C3062 861.35 2726.68 526.034 2314.5 526.034C2161.17 526.034 2018.46 572.427 1899.67 652.006V321.635H1933.47L1934.82 321.364L1941.73 320.077C1997.74 309.579 2058.02 256.211 2058.02 163.899C2058.02 71.5872 2006.54 22.6885 1962.59 5.89223L1949.52 0.948175L1947.08 0H1335.37L1332.66 1.15136L1318.64 6.97586C1282.21 22.1467 1220.51 72.4677 1220.51 164.779C1220.51 252.011 1282.88 307.615 1340.86 322.38L1350.07 324.682L1351.9 325.156H1383.8V664.739C1382.24 667.312 1378.31 671.918 1376.55 674.085C1374.52 676.523 1372.89 678.419 1371.74 680.18L1331.11 739.577L1256.13 849.294L1181.23 958.944L984.48 1246.85L886.75 1389.89L788.952 1532.93L642.73 1746.88C610.357 1794.29 576.9 1843.32 565.996 1908.47C555.362 1972.88 565.928 2035.53 595.728 2084.9C640.563 2159 705.513 2203.49 783.67 2213.65C795.454 2215.21 807.713 2215.95 820.107 2215.95H822.612C879.977 2215.48 937.003 2215.21 997.212 2215.21H2428.01C2433.49 2215.21 2438.91 2215.21 2444.33 2215.28C2449.75 2215.34 2455.17 2215.34 2460.52 2215.34C2489.5 2215.34 2523.23 2214.26 2557.16 2201.8C2593.74 2188.32 2627.8 2165.56 2655.71 2135.9C2701.9 2086.8 2728.17 2020.77 2726.01 1959.27C2725.33 1939.83 2720.93 1921.82 2714.15 1904.82C2923.09 1772.14 3062 1538.69 3062 1273.4V1273.53ZM2645.01 2126.01C2619.27 2153.44 2587.37 2175.25 2552.02 2188.19C2521.61 2199.36 2491.47 2200.85 2460.45 2200.85C2449.75 2200.85 2438.91 2200.65 2428.01 2200.65H997.144C938.764 2200.65 880.79 2200.92 822.477 2201.32C821.664 2201.32 820.852 2201.32 820.107 2201.32C808.254 2201.32 796.741 2200.58 785.634 2199.16C709.78 2189.27 650.112 2146.33 608.325 2077.32C578.322 2027.74 571.075 1967.33 580.489 1910.84C590.58 1850.03 620.922 1804.72 654.853 1755.07C703.549 1683.76 752.312 1612.44 801.075 1541.12C866.229 1445.76 931.382 1350.4 996.603 1255.05C1062.16 1159.08 1127.79 1063.11 1193.35 967.139C1243.33 893.994 1293.25 820.917 1343.23 747.772C1356.77 727.996 1370.32 708.219 1383.8 688.375C1386.64 684.312 1398.43 672.189 1398.43 666.974V310.595H1353.73L1344.52 308.292C1291.82 294.883 1235.14 244.291 1235.14 164.847C1235.14 80.1885 1291.15 34.2698 1324.26 20.5212L1338.22 14.6967H1944.37L1957.44 19.6408C1997.13 34.7439 2043.46 81.6785 2043.46 163.967C2043.46 246.255 1989.34 296.373 1939.09 305.787L1932.18 307.073H1885.04V662.03C1871.84 671.376 1858.9 681.129 1846.37 691.152L1838.38 679.029V260.41H1927.85L1930.49 259.936C1953.38 255.601 1996.79 230.068 1996.79 163.967C1996.79 101.252 1961.64 71.1809 1940.85 63.1891L1935.84 61.2928H1347.63L1342.28 63.5278C1319.79 72.8741 1281.8 104.773 1281.8 164.779C1281.8 224.785 1330.29 256.481 1355.96 262.983L1359.48 263.931H1445.02V681.399L649.096 1846.23L646.929 1849.28L645.71 1852.8C643.881 1857.88 601.891 1976.74 648.216 2053.27C692.916 2127.23 754.682 2154.05 785.363 2154.05H2503.66C2509.76 2153.64 2564.68 2148.77 2620.76 2082.73C2671.42 2023 2664.65 1954.87 2661.46 1935.56C2660.99 1932.58 2660.51 1930.82 2660.45 1930.35L2659.3 1925.27L2658.28 1923.78C2671.35 1916.87 2684.22 1909.49 2696.82 1901.9C2698.44 1905.56 2700 1909.22 2701.42 1912.94C2707.04 1927.84 2710.77 1943.49 2711.38 1960.08C2713.48 2020.83 2686.12 2082.46 2645.01 2126.15V2126.01Z" fill="#FCFDFC"></path><path d="M2314.5 538.225C2161.71 538.225 2019.89 584.821 1902.25 664.603C1900.28 665.958 1898.18 667.312 1896.22 668.667C1894.26 670.089 1892.22 671.511 1890.26 672.934C1877.53 681.941 1865.07 691.355 1853.01 701.176C1849.15 704.224 1845.43 707.339 1841.7 710.522C1837.91 713.638 1834.18 716.821 1830.53 720.072C1676.51 854.916 1579.26 1052.95 1579.26 1273.6C1579.26 1679.76 1908.48 2008.91 2314.57 2008.91C2428.28 2008.91 2536.04 1983.04 2632.14 1936.99C2636.54 1934.89 2640.94 1932.72 2645.35 1930.49C2649.75 1928.32 2654.08 1926.02 2658.42 1923.71C2671.49 1916.8 2684.36 1909.42 2696.95 1901.84C2699.12 1900.55 2701.22 1899.2 2703.25 1897.98C2705.35 1896.69 2707.45 1895.33 2709.48 1893.98C2914.15 1763.47 3049.95 1534.35 3049.95 1273.6C3049.95 867.513 2720.73 538.293 2314.64 538.293L2314.5 538.225ZM2708.26 1891.47C2706.23 1892.76 2704.13 1894.12 2702.03 1895.4C2699.93 1896.69 2697.83 1897.98 2695.74 1899.26C2683 1906.98 2670.07 1914.43 2656.86 1921.48C2652.53 1923.78 2648.19 1926.02 2643.79 1928.18C2639.39 1930.42 2635.05 1932.58 2630.58 1934.68C2534.82 1980.67 2427.6 2006.41 2314.5 2006.41C1910.38 2006.41 1581.63 1677.66 1581.63 1273.54C1581.63 1054.03 1678.61 856.744 1832.02 722.307C1835.67 719.056 1839.4 715.873 1843.19 712.689C1846.92 709.506 1850.71 706.391 1854.5 703.343C1866.62 693.523 1879.02 684.109 1891.75 675.033C1893.71 673.679 1895.75 672.256 1897.71 670.834C1899.67 669.48 1901.71 668.125 1903.74 666.771C2020.97 587.124 2162.39 540.596 2314.43 540.596C2718.56 540.596 3047.31 869.409 3047.31 1273.47C3047.31 1532.79 2911.92 1761.1 2708.13 1891.34L2708.26 1891.47Z" fill="#142E64"></path><path d="M1852.94 701.108C1849.08 704.156 1845.36 707.271 1841.63 710.455C1837.84 713.57 1834.11 716.753 1830.46 720.004L1832.01 722.307C1835.67 719.056 1839.4 715.873 1843.19 712.69C1846.91 709.506 1850.71 706.391 1854.5 703.343L1853.01 701.041L1852.94 701.108ZM2656.79 1921.48C2652.46 1923.78 2648.12 1926.02 2643.72 1928.18C2639.32 1930.42 2634.98 1932.58 2630.51 1934.68L2632 1936.92C2636.41 1934.82 2640.81 1932.65 2645.21 1930.42C2649.61 1928.25 2653.95 1925.95 2658.28 1923.64L2656.79 1921.41V1921.48Z" fill="#142E64"></path><path d="M2701.97 1895.4C2699.87 1896.69 2697.77 1897.98 2695.67 1899.26C2682.93 1906.98 2670 1914.43 2656.79 1921.48C2652.46 1923.78 2648.12 1926.02 2643.72 1928.18C2639.32 1930.42 2634.98 1932.58 2630.51 1934.68C2534.75 1980.67 2427.54 2006.41 2314.43 2006.41C1910.31 2006.41 1581.56 1677.66 1581.56 1273.54C1581.56 1054.03 1678.55 856.744 1831.95 722.307C1835.6 719.056 1839.33 715.873 1843.12 712.689C1846.85 709.506 1850.64 706.391 1854.43 703.343C1866.56 693.523 1878.95 684.109 1891.68 675.033C1893.65 673.679 1895.68 672.256 1897.64 670.834L1896.15 668.531C1894.19 669.954 1892.16 671.376 1890.19 672.798C1877.46 681.806 1865 691.22 1852.94 701.04C1849.08 704.088 1845.36 707.204 1841.63 710.387C1837.84 713.502 1834.11 716.685 1830.46 719.936C1676.45 854.78 1579.19 1052.81 1579.19 1273.47C1579.19 1679.63 1908.41 2008.78 2314.5 2008.78C2428.21 2008.78 2535.97 1982.91 2632.07 1936.85C2636.47 1934.75 2640.88 1932.58 2645.28 1930.35C2649.68 1928.18 2654.01 1925.88 2658.35 1923.58C2671.42 1916.67 2684.29 1909.29 2696.89 1901.7C2699.05 1900.41 2701.15 1899.06 2703.18 1897.84C2702.78 1897.03 2702.44 1896.15 2702.03 1895.34L2701.97 1895.4Z" fill="white"></path><path d="M1902.25 664.603C1900.28 665.958 1898.18 667.312 1896.22 668.667C1894.26 670.089 1892.22 671.511 1890.26 672.934C1890.8 673.679 1891.28 674.424 1891.75 675.169C1893.71 673.814 1895.75 672.392 1897.71 670.97C1899.67 669.615 1901.71 668.261 1903.74 666.906L1902.25 664.603ZM2708.2 1891.47C2706.17 1892.76 2704.07 1894.12 2701.97 1895.4C2699.87 1896.69 2697.77 1897.98 2695.67 1899.26C2696.07 1900.14 2696.41 1900.96 2696.82 1901.77C2698.99 1900.48 2701.09 1899.13 2703.12 1897.91C2705.22 1896.62 2707.32 1895.27 2709.35 1893.91C2708.94 1893.1 2708.54 1892.29 2708.2 1891.41V1891.47Z" fill="#142E64"></path><path d="M2598.48 2063.77C2548.9 2122.15 2502.03 2124.86 2502.03 2124.86H785.43C765.992 2124.86 712.894 2103.66 673.274 2038.1C633.654 1972.61 673.274 1862.69 673.274 1862.69L1474.28 690.407V234.741H1363.21C1363.21 234.741 1311.06 221.467 1311.06 164.779C1311.06 108.092 1353.52 90.4829 1353.52 90.4829H1930.49C1930.49 90.4829 1967.6 104.638 1967.6 163.899C1967.6 223.16 1925.14 231.152 1925.14 231.152H1809.19V687.766L1823.88 710.048L1830.39 720.004C1676.38 854.848 1579.12 1052.88 1579.12 1273.53C1579.12 1679.69 1908.34 2008.84 2314.43 2008.84C2428.14 2008.84 2535.9 1982.97 2632 1936.92C2632 1936.92 2633.08 1941.52 2633.83 1949.31C2635.93 1971.66 2635.25 2020.43 2598.48 2063.7V2063.77Z" fill="white"></path><path d="M2643.79 1928.18C2639.38 1930.42 2635.05 1932.58 2630.58 1934.68C2534.81 1980.67 2427.6 2006.41 2314.5 2006.41C1910.37 2006.41 1581.63 1677.66 1581.63 1273.53C1581.63 1054.03 1678.61 856.744 1832.01 722.306C1835.67 719.056 1839.39 715.872 1843.19 712.689L1841.7 710.386C1837.9 713.502 1834.18 716.685 1830.52 719.936C1676.51 854.78 1579.25 1052.81 1579.25 1273.47C1579.25 1679.62 1908.47 2008.78 2314.56 2008.78C2428.28 2008.78 2536.03 1982.91 2632.14 1936.85C2636.54 1934.75 2640.94 1932.58 2645.34 1930.35L2643.85 1928.05L2643.79 1928.18Z" fill="white"></path><path d="M1852.94 701.108C1849.08 704.156 1845.36 707.271 1841.63 710.455C1837.84 713.57 1834.11 716.753 1830.46 720.004L1832.01 722.307C1835.67 719.056 1839.4 715.873 1843.19 712.69C1846.91 709.506 1850.71 706.391 1854.5 703.343L1853.01 701.041L1852.94 701.108ZM2656.79 1921.48C2652.46 1923.78 2648.12 1926.02 2643.72 1928.18C2639.32 1930.42 2634.98 1932.58 2630.51 1934.68L2632 1936.92C2636.41 1934.82 2640.81 1932.65 2645.21 1930.42C2649.61 1928.25 2653.95 1925.95 2658.28 1923.64L2656.79 1921.41V1921.48Z" fill="#00407A"></path><path d="M3062 1273.53C3062 861.35 2726.68 526.034 2314.5 526.034C2161.17 526.034 2018.46 572.427 1899.67 652.006V321.635H1933.47L1934.82 321.364L1941.73 320.077C1997.74 309.579 2058.02 256.211 2058.02 163.899C2058.02 71.5872 2006.54 22.6885 1962.59 5.89223L1949.52 0.948175L1947.01 0H1335.37L1332.66 1.15136L1318.64 6.97586C1282.21 22.1467 1220.51 72.4677 1220.51 164.779C1220.51 252.011 1282.88 307.615 1340.86 322.38L1350.07 324.682L1351.9 325.156H1383.8V664.739C1382.24 667.312 1378.31 671.918 1376.55 674.085C1374.52 676.523 1372.89 678.419 1371.74 680.18L1331.11 739.577L1256.13 849.294L1181.23 958.944L984.48 1246.85L886.75 1389.89L788.952 1532.93L642.73 1746.88C610.357 1794.29 576.9 1843.32 565.996 1908.47C555.362 1972.88 565.928 2035.53 595.728 2084.9C640.563 2159 705.513 2203.49 783.67 2213.65C795.454 2215.21 807.713 2215.95 820.107 2215.95H822.612C879.977 2215.48 937.003 2215.21 997.212 2215.21H2428.01C2433.49 2215.21 2438.91 2215.21 2444.33 2215.28C2449.75 2215.34 2455.17 2215.34 2460.52 2215.34C2489.5 2215.34 2523.23 2214.26 2557.16 2201.8C2593.74 2188.32 2627.8 2165.56 2655.71 2135.9C2701.9 2086.8 2728.17 2020.77 2726.01 1959.27C2725.33 1939.83 2720.93 1921.82 2714.15 1904.82C2923.09 1772.14 3062 1538.69 3062 1273.4V1273.53ZM2709.41 1893.91C2707.38 1895.27 2705.28 1896.62 2703.18 1897.91C2701.08 1899.2 2698.98 1900.48 2696.88 1901.77C2698.51 1905.43 2700.07 1909.08 2701.49 1912.81C2707.11 1927.71 2710.84 1943.35 2711.45 1959.95C2713.54 2020.7 2686.18 2082.33 2645.07 2126.01C2619.34 2153.44 2587.44 2175.25 2552.08 2188.19C2521.67 2199.36 2491.54 2200.85 2460.52 2200.85C2449.82 2200.85 2438.98 2200.65 2428.08 2200.65H997.144C938.764 2200.65 880.79 2200.92 822.477 2201.32C821.664 2201.32 820.852 2201.32 820.107 2201.32C808.254 2201.32 796.741 2200.58 785.634 2199.16C709.78 2189.27 650.112 2146.33 608.325 2077.32C578.322 2027.74 571.075 1967.33 580.489 1910.84C590.58 1850.03 620.922 1804.72 654.853 1755.07C703.549 1683.76 752.312 1612.44 801.075 1541.12C866.229 1445.76 931.382 1350.4 996.603 1255.05C1062.16 1159.08 1127.79 1063.11 1193.35 967.139C1243.33 893.994 1293.25 820.917 1343.23 747.772C1356.77 727.996 1370.32 708.219 1383.8 688.375C1386.64 684.312 1398.43 672.189 1398.43 666.974V310.595H1353.73L1344.52 308.292C1291.82 294.883 1235.14 244.291 1235.14 164.847C1235.14 80.1885 1291.15 34.2698 1324.26 20.5212L1338.22 14.6967H1944.37L1957.44 19.6408C1997.13 34.7439 2043.46 81.6785 2043.46 163.967C2043.46 246.255 1989.34 296.373 1939.09 305.787L1932.18 307.073H1885.04V662.03C1887.82 665.01 1889.65 668.667 1890.66 672.595C1892.56 671.308 1894.39 669.954 1896.29 668.667C1898.25 667.312 1900.35 665.958 1902.31 664.603C2019.89 584.821 2161.77 538.225 2314.57 538.225C2720.66 538.225 3049.88 867.445 3049.88 1273.53C3049.88 1534.28 2914.15 1763.4 2709.41 1893.91Z" fill="#00407A"></path><path d="M2660.45 1930.28L2659.3 1925.2L2658.28 1923.71C2654.01 1926.02 2649.61 1928.32 2645.21 1930.48C2640.81 1932.65 2636.47 1934.89 2632 1936.99C2632 1936.99 2633.09 1941.59 2633.83 1949.38C2635.93 1971.73 2635.25 2020.49 2598.48 2063.77C2548.9 2122.15 2502.03 2124.86 2502.03 2124.86H785.43C765.993 2124.86 712.895 2103.66 673.275 2038.1C633.655 1972.61 673.275 1862.69 673.275 1862.69L1474.28 690.407V234.741H1363.21C1363.21 234.741 1311.06 221.467 1311.06 164.779C1311.06 108.092 1353.52 90.4829 1353.52 90.4829H1930.49C1930.49 90.4829 1967.6 104.638 1967.6 163.899C1967.6 223.16 1925.14 231.151 1925.14 231.151H1809.19V687.766L1823.89 710.048L1830.39 720.004C1834.11 716.82 1837.77 713.57 1841.56 710.454C1845.29 707.271 1849.08 704.155 1852.87 701.108C1853.41 700.701 1838.31 679.029 1838.31 679.029V260.409H1927.78L1930.42 259.935C1953.31 255.601 1996.72 230.068 1996.72 163.966C1996.72 101.251 1961.57 71.1807 1940.78 63.189L1935.77 61.2926H1347.63L1342.28 63.5276C1319.79 72.8739 1281.8 104.773 1281.8 164.779C1281.8 224.785 1330.29 256.481 1355.96 262.983L1359.48 263.931H1445.02V681.399L649.096 1846.23L646.929 1849.28L645.71 1852.8C643.881 1857.88 601.891 1976.74 648.216 2053.27C692.916 2127.23 754.682 2154.05 785.363 2154.05H2503.66C2509.76 2153.64 2564.68 2148.77 2620.76 2082.73C2671.42 2023 2664.65 1954.87 2661.46 1935.56C2660.99 1932.58 2660.51 1930.82 2660.45 1930.35V1930.28Z" fill="#00407A"></path><path d="M2645 2126.08C2619.27 2153.51 2587.37 2175.32 2552.02 2188.25C2521.61 2199.43 2491.47 2200.92 2460.45 2200.92C2449.75 2200.92 2438.91 2200.72 2428.01 2200.72H997.144C938.763 2200.72 880.789 2200.99 822.477 2201.39C821.664 2201.39 820.851 2201.39 820.106 2201.39C808.254 2201.39 796.74 2200.65 785.633 2199.23C709.779 2189.34 650.112 2146.4 608.324 2077.38C578.321 2027.81 571.075 1967.4 580.489 1910.91C590.58 1850.09 620.922 1804.78 654.853 1755.14C703.548 1683.82 752.312 1612.51 801.075 1541.19C866.228 1445.83 931.381 1350.47 996.602 1255.11C1062.16 1159.14 1127.79 1063.18 1193.35 967.207C1243.33 894.062 1293.25 820.984 1343.23 747.84C1356.77 728.063 1370.32 708.287 1383.8 688.443C1386.64 684.38 1398.43 672.256 1398.43 667.041V310.595H1353.73L1344.51 308.293C1291.82 294.883 1235.14 244.291 1235.14 164.847C1235.14 80.1886 1291.15 34.2698 1324.26 20.5213L1338.22 14.6968H1944.37L1957.44 19.6408C1997.13 34.7439 2043.46 81.6786 2043.46 163.967C2043.46 246.255 1989.34 296.373 1939.09 305.787L1932.18 307.073H1885.04V662.03C1871.84 671.376 1858.9 681.129 1846.37 691.152L1838.38 679.029V260.41H1927.85L1930.49 259.936C1953.38 255.601 1996.79 230.068 1996.79 163.967C1996.79 101.252 1961.64 71.1809 1940.85 63.1892L1935.84 61.2928H1347.63L1342.28 63.5278C1319.79 72.8741 1281.8 104.773 1281.8 164.779C1281.8 224.785 1330.29 256.482 1355.96 262.983L1359.48 263.931H1445.02V681.4L649.096 1846.23L646.929 1849.28L645.71 1852.8C643.881 1857.88 601.89 1976.74 648.215 2053.27C692.915 2127.23 754.682 2154.05 785.362 2154.05H2503.66C2509.75 2153.65 2564.68 2148.77 2620.76 2082.73C2671.42 2023 2664.65 1954.87 2661.46 1935.56C2660.99 1932.58 2660.51 1930.82 2660.45 1930.35L2659.3 1925.27L2658.28 1923.78C2671.35 1916.87 2684.22 1909.49 2696.82 1901.9C2698.44 1905.56 2700 1909.22 2701.42 1912.94C2707.04 1927.84 2710.77 1943.49 2711.38 1960.08C2713.48 2020.83 2686.11 2082.46 2645 2126.15V2126.08Z" fill="#FCFDFC"></path><path d="M2314.5 538.225C2161.71 538.225 2019.89 584.821 1902.25 664.603C1900.28 665.958 1898.18 667.312 1896.22 668.667C1894.26 670.089 1892.22 671.511 1890.26 672.934C1877.53 681.941 1865.07 691.355 1853.01 701.176C1849.15 704.224 1845.43 707.339 1841.7 710.522C1837.91 713.638 1834.18 716.821 1830.53 720.072C1676.51 854.916 1579.26 1052.95 1579.26 1273.6C1579.26 1679.76 1908.48 2008.91 2314.57 2008.91C2428.28 2008.91 2536.04 1983.04 2632.14 1936.99C2636.54 1934.89 2640.94 1932.72 2645.35 1930.49C2649.75 1928.32 2654.08 1926.02 2658.42 1923.71C2671.49 1916.8 2684.36 1909.42 2696.95 1901.84C2699.12 1900.55 2701.22 1899.2 2703.25 1897.98C2705.35 1896.69 2707.45 1895.33 2709.48 1893.98C2914.15 1763.47 3049.95 1534.35 3049.95 1273.6C3049.95 867.513 2720.73 538.293 2314.64 538.293L2314.5 538.225ZM2708.26 1891.47C2706.23 1892.76 2704.13 1894.12 2702.03 1895.4C2699.93 1896.69 2697.83 1897.98 2695.74 1899.26C2683 1906.98 2670.07 1914.43 2656.86 1921.48C2652.53 1923.78 2648.19 1926.02 2643.79 1928.18C2639.39 1930.42 2635.05 1932.58 2630.58 1934.68C2534.82 1980.67 2427.6 2006.41 2314.5 2006.41C1910.38 2006.41 1581.63 1677.66 1581.63 1273.54C1581.63 1054.03 1678.61 856.744 1832.02 722.307C1835.67 719.056 1839.4 715.873 1843.19 712.689C1846.92 709.506 1850.71 706.391 1854.5 703.343C1866.62 693.523 1879.02 684.109 1891.75 675.033C1893.71 673.679 1895.75 672.256 1897.71 670.834C1899.67 669.48 1901.71 668.125 1903.74 666.771C2020.97 587.124 2162.39 540.596 2314.43 540.596C2718.56 540.596 3047.31 869.409 3047.31 1273.47C3047.31 1532.79 2911.92 1761.1 2708.13 1891.34L2708.26 1891.47Z" fill="#FCFDFC"></path><path d="M2314.5 540.664C2162.39 540.664 2021.04 587.26 1903.8 666.839C1901.77 668.193 1899.74 669.548 1897.78 670.902C1895.81 672.324 1893.78 673.747 1891.82 675.101C1879.08 684.177 1866.62 693.523 1854.57 703.411C1850.77 706.459 1846.98 709.574 1843.26 712.757C1839.53 715.941 1835.74 719.056 1832.08 722.375C1678.68 856.812 1581.7 1054.1 1581.7 1273.6C1581.7 1677.73 1910.44 2006.48 2314.57 2006.48C2427.67 2006.48 2534.88 1980.74 2630.65 1934.75C2635.05 1932.59 2639.45 1930.49 2643.86 1928.25C2648.26 1926.08 2652.59 1923.85 2656.93 1921.55C2670.13 1914.57 2683.14 1907.12 2695.8 1899.33C2697.9 1898.04 2700 1896.76 2702.1 1895.47C2704.2 1894.18 2706.3 1892.83 2708.33 1891.54C2912.12 1761.24 3047.51 1532.93 3047.51 1273.67C3047.51 869.545 2718.69 540.799 2314.64 540.799L2314.5 540.664ZM2813.78 1772.89C2777.48 1809.19 2737.86 1841.09 2695.67 1868.24C2693.64 1869.6 2691.54 1870.95 2689.5 1872.17C2687.4 1873.46 2685.37 1874.81 2683.27 1876.03C2669.86 1884.3 2656.18 1892.08 2642.3 1899.4C2637.96 1901.7 2633.56 1903.94 2629.23 1906.04C2624.82 1908.27 2620.42 1910.44 2616.02 1912.54C2522.96 1956.56 2420.49 1979.72 2314.57 1979.72C2125.95 1979.72 1948.64 1906.31 1815.22 1772.95C1681.86 1639.53 1608.45 1462.22 1608.45 1273.6C1608.45 1084.98 1681.86 907.675 1815.22 774.321C1825.51 764.027 1835.94 754.138 1846.71 744.657C1850.44 741.406 1854.09 738.155 1857.89 735.04C1861.61 731.856 1865.4 728.741 1869.2 725.625C1881.32 715.67 1893.71 706.256 1906.38 697.248C1908.34 695.826 1910.37 694.403 1912.34 693.049C1914.3 691.627 1916.33 690.204 1918.37 688.918C2034.31 609.948 2171.19 567.483 2314.57 567.483C2503.19 567.483 2680.5 640.899 2813.85 774.321C2947.27 907.675 3020.69 1085.05 3020.69 1273.6C3020.69 1462.15 2947.27 1639.53 2813.85 1772.95L2813.78 1772.89Z" fill="white"></path><path d="M2813.78 774.253C2680.43 640.831 2503.05 567.416 2314.5 567.416C2171.12 567.416 2034.25 609.88 1918.3 688.85C1916.27 690.137 1914.23 691.559 1912.27 692.981C1910.31 694.336 1908.27 695.758 1906.31 697.18C1893.65 706.188 1881.25 715.602 1869.13 725.558C1865.34 728.605 1861.54 731.788 1857.82 734.972C1854.09 738.155 1850.37 741.338 1846.64 744.589C1835.87 754.138 1825.44 764.026 1815.15 774.253C1681.8 907.607 1608.38 1084.98 1608.38 1273.54C1608.38 1462.09 1681.8 1639.46 1815.15 1772.89C1948.57 1906.24 2125.88 1979.66 2314.5 1979.66C2420.42 1979.66 2522.9 1956.49 2615.95 1912.47C2620.35 1910.37 2624.82 1908.2 2629.16 1905.97C2633.56 1903.8 2637.9 1901.57 2642.23 1899.33C2656.18 1892.02 2669.8 1884.23 2683.2 1875.97C2685.3 1874.75 2687.34 1873.46 2689.44 1872.1C2691.47 1870.82 2693.57 1869.53 2695.6 1868.18C2737.79 1841.09 2777.41 1809.12 2813.71 1772.82C2947.14 1639.4 3020.55 1462.09 3020.55 1273.47C3020.55 1084.85 2947.14 907.54 2813.71 774.185L2813.78 774.253ZM2679.89 1843.52C2677.85 1844.81 2675.75 1846.1 2673.72 1847.38C2671.69 1848.67 2669.59 1849.96 2667.49 1851.25C2654.01 1859.51 2640.13 1867.36 2626.04 1874.68C2621.71 1876.91 2617.31 1879.15 2612.9 1881.32C2608.5 1883.48 2604.03 1885.58 2599.63 1887.68C2512.94 1927.98 2416.36 1950.46 2314.5 1950.46C1940.65 1950.46 1637.57 1647.39 1637.57 1273.54C1637.57 1073.2 1724.6 893.182 1862.9 769.309C1866.55 765.991 1870.28 762.807 1874 759.557C1877.73 756.373 1881.45 753.258 1885.25 750.143C1897.3 740.254 1909.7 730.705 1922.43 721.697C1924.39 720.275 1926.43 718.853 1928.39 717.498C1930.35 716.076 1932.39 714.721 1934.35 713.367C2042.71 639.748 2173.56 596.674 2314.43 596.674C2688.28 596.674 2991.36 899.751 2991.36 1273.6C2991.36 1512.88 2867.22 1723.17 2679.82 1843.59L2679.89 1843.52Z" fill="#00407A"></path><path d="M2314.5 596.606C2173.63 596.606 2042.78 639.68 1934.42 713.299C1932.45 714.654 1930.42 716.008 1928.46 717.43C1926.49 718.785 1924.46 720.207 1922.5 721.63C1909.76 730.705 1897.37 740.254 1885.31 750.075C1881.52 753.19 1877.8 756.373 1874.07 759.489C1870.35 762.672 1866.62 765.923 1862.96 769.241C1724.67 893.182 1637.64 1073.2 1637.64 1273.47C1637.64 1647.32 1940.72 1950.4 2314.57 1950.4C2416.43 1950.4 2513.01 1927.91 2599.7 1887.61C2604.1 1885.51 2608.57 1883.42 2612.97 1881.25C2617.37 1879.08 2621.78 1876.85 2626.11 1874.61C2640.2 1867.23 2654.08 1859.44 2667.56 1851.18C2669.66 1849.89 2671.76 1848.67 2673.79 1847.32C2675.82 1845.96 2677.92 1844.74 2679.95 1843.46C2867.35 1723.04 2991.5 1512.81 2991.5 1273.47C2991.5 899.616 2688.42 596.538 2314.57 596.538L2314.5 596.606ZM2663.97 1820.36C2661.94 1821.65 2659.91 1823 2657.87 1824.22C2655.84 1825.51 2653.74 1826.86 2651.64 1828.08C2638.3 1836.28 2624.69 1844.07 2610.74 1851.31C2606.4 1853.62 2602 1855.78 2597.67 1857.95C2593.26 1860.12 2588.86 1862.28 2584.39 1864.32C2501.02 1903.06 2408.1 1924.73 2310.16 1924.73C1950.47 1924.73 1658.9 1633.16 1658.9 1273.47C1658.9 1080.72 1742.61 907.607 1875.7 788.34C1879.35 785.022 1883.08 781.839 1886.74 778.655C1890.46 775.472 1894.25 772.289 1898.05 769.241C1910.1 759.353 1922.5 749.939 1935.3 740.932C1937.26 739.509 1939.29 738.155 1941.26 736.733C1943.22 735.378 1945.25 734.024 1947.28 732.669C2050.97 662.91 2175.86 622.207 2310.23 622.207C2669.86 622.207 2961.49 913.838 2961.49 1273.47C2961.49 1502.72 2843.11 1704.28 2664.11 1820.29L2663.97 1820.36Z" fill="white"></path><path d="M2672.84 1052.34V1506.31H2740.5V1694.8H2468.44L2147.22 1303.2L2144.57 1508.95H2236.14V1686.8H1861.88V1508.95H1929.54V1053.69H1853.89V878.485H2157.85L2455.17 1282.61V1052.34H2360.89V878.485H2740.5V1052.34H2672.84Z" fill="#00407A"></path><path d="M1816.98 381.844H1471.1V413.675H1816.98V381.844Z" fill="#00407A"></path><path d="M1724 827.525C1686.02 876.63 1654.59 929.967 1630.32 986.807C1614.49 992.717 1597.22 995.927 1579.14 996C1577.9 996 1576.66 996 1575.49 995.927C1558.87 995.562 1542.97 992.498 1528.25 987.098C1472.33 966.96 1432.67 913.988 1432.01 850.801C1431.06 767.621 1494.86 701.661 1576.95 701.005C1615.15 700.713 1649.64 714.211 1675.66 736.903C1687.84 747.483 1698.12 760.106 1706.14 774.261C1715.25 790.24 1721.45 808.262 1724 827.525Z" fill="#00407A"></path><path d="M2574.5 2069C2582 2061.5 2586.88 2051.38 2590.15 2045.82C2592.21 2042.32 2603.23 2017.81 2604.65 2003.32C2607.15 1977.82 2609.15 1958.82 2607.15 1945.82C2478.15 1996.82 2403.13 1998.85 2302.15 1996.82C1903.65 1988.82 1639.29 1717.24 1593.5 1353C1586.66 1351.11 1566.24 1346.48 1559.4 1344.51L1530.79 1336.42C1514.56 1331.91 1498.32 1327.39 1482.09 1323.02C1444.16 1312.75 1406.16 1302.99 1368.02 1294.32C1371.29 1305.1 1373.04 1316.46 1373.04 1328.34C1373.26 1394.85 1320.41 1447.88 1254.09 1447.81C1188.65 1447.81 1136.67 1396.45 1135.79 1331.18C1135.43 1304.52 1143.36 1280.04 1157.2 1260.22C1146.93 1259.35 1136.74 1258.62 1126.48 1258.04C1107.19 1256.95 1099.11 1279.41 1088.65 1294.32C945.147 1498.82 960.147 1483.82 793.253 1710.32C793.253 1710.32 773.998 1738.5 689.499 1874.5C673.855 1899.68 665.73 1992.17 705.5 2045C740.229 2083.17 807.217 2109 818.5 2109C1120.97 2109.15 1275.53 2107.32 1578 2107.32H2488.65C2488.65 2107.32 2504.15 2105.32 2517.15 2103.82C2545.47 2100.55 2571 2072.5 2574.5 2069ZM1330.67 1935.68C1300.24 1936.84 1275.86 1914.48 1274.84 1884.47C1273.82 1854.74 1297.33 1830.05 1327.25 1829.39C1357.39 1828.81 1381.27 1851.98 1381.56 1882.21C1381.92 1911.78 1360.23 1934.59 1330.67 1935.68Z" fill="#00407A"></path><rect x="672" y="1785" width="324" height="324" rx="162" fill="#00407A"></rect></g><defs><clipPath id="clip0_404_4"><rect width="3623" height="665.183" fill="white" transform="translate(0 2249)"></rect></clipPath><clipPath id="clip1_404_4"><rect width="2500" height="2216.02" fill="white" transform="translate(562)"></rect></clipPath></defs></svg>