<svg xmlns="http://www.w3.org/2000/svg" viewBox="0 0 170.46344 36.28631"><defs><style>.cls-1{fill:#002855;}.cls-2{fill:#4187f6;}</style></defs><g id="Layer_2" data-name="Layer 2"><g id="Layer_1-2" data-name="Layer 1"><path class="cls-1" d="M28.296,34.847V11.104a.04077.04077,0,0,0-.077-.019L19.329,28.09a.59089.59089,0,0,1-.523.317H15.777a.58974.58974,0,0,1-.523-.317L6.362,11.085a.04019.04019,0,0,0-.076.019V34.847a.59066.59066,0,0,1-.591.59H.59a.58981.58981,0,0,1-.59-.59V.59A.58981.58981,0,0,1,.59,0H6.427A.58951.58951,0,0,1,6.95.318L17.23,20.095a.04067.04067,0,0,0,.072,0L27.681.316A.5907.5907,0,0,1,28.204,0h5.779a.58981.58981,0,0,1,.59.59V34.847a.58981.58981,0,0,1-.59.59H28.886a.58981.58981,0,0,1-.59-.59"/><path class="cls-1" d="M54.0535,26.6182v-2.24a.21868.21868,0,0,0-.2-.221q-1.14-.093-2.457-.143-1.4355-.0525-2.178-.053-3.0285,0-4.251,1.195a3.72748,3.72748,0,0,0-1.222,2.736,3.00591,3.00591,0,0,0,1.143,2.498,5.35881,5.35881,0,0,0,3.373.903,6.37,6.37,0,0,0,4.941-2.337,3.66121,3.66121,0,0,0,.851-2.338m1.531,8.577-1.395-1.909a.18165.18165,0,0,0-.286-.014,8.91976,8.91976,0,0,1-2.959,2.005,10.94482,10.94482,0,0,1-4.596.957,10.13653,10.13653,0,0,1-4.01-.851,7.73249,7.73249,0,0,1-3.294-2.656,7.61431,7.61431,0,0,1-1.302-4.569,7.84024,7.84024,0,0,1,3.029-6.587,12.58906,12.58906,0,0,1,7.915-2.338c.603,0,1.319.018,2.152.053q1.2075.051,3.085.152a.123.123,0,0,0,.131-.12,6.40977,6.40977,0,0,0-.205-1.722,3.40425,3.40425,0,0,0-1.284-1.657,6.52027,6.52027,0,0,0-3.879-1.062,10.85976,10.85976,0,0,0-4.249.69,19.97492,19.97492,0,0,0-2.339,1.188.58681.58681,0,0,1-.795-.17l-2.227-3.301a.58542.58542,0,0,1,.148-.813,19.38087,19.38087,0,0,1,1.919-1.128,14.83148,14.83148,0,0,1,3.399-1.195,22.075,22.075,0,0,1,4.995-.478,11.16763,11.16763,0,0,1,7.65,2.523,8.26917,8.26917,0,0,1,2.869,6.508v16.146a.58981.58981,0,0,1-.59.59h-3.406a.58976.58976,0,0,1-.476-.242"/><path class="cls-1" d="M82.6708,28.7119l2.447,3.557a.59359.59359,0,0,1-.092.782,13.55833,13.55833,0,0,1-3.224,2.067,13.11266,13.11266,0,0,1-5.551,1.116,14.68045,14.68045,0,0,1-7.253-1.674,11.17021,11.17021,0,0,1-4.569-4.675,14.77513,14.77513,0,0,1-1.567-6.933,13.32762,13.32762,0,0,1,1.7-6.641,12.98151,12.98151,0,0,1,4.702-4.835,13.29752,13.29752,0,0,1,6.987-1.806,13.699,13.699,0,0,1,5.525,1.089,13.18135,13.18135,0,0,1,3.152,1.92.59191.59191,0,0,1,.098.793l-2.565,3.671a.58148.58148,0,0,1-.883.093,7.17315,7.17315,0,0,0-2.007-1.404,7.69949,7.69949,0,0,0-3.32-.69,6.65763,6.65763,0,0,0-3.959,1.116,6.80519,6.80519,0,0,0-2.338,2.895,9.472,9.472,0,0,0-.77,3.799,9.27528,9.27528,0,0,0,.77,3.666,7.14445,7.14445,0,0,0,2.338,2.975,6.43547,6.43547,0,0,0,3.959,1.169,8.12279,8.12279,0,0,0,3.426-.718,7.32351,7.32351,0,0,0,2.113-1.432.58074.58074,0,0,1,.881.1"/><path class="cls-1" d="M88.0287,34.847V.59a.58981.58981,0,0,1,.59-.59h5.089a.58981.58981,0,0,1,.59.59V34.847a.58981.58981,0,0,1-.59.59h-5.089a.58981.58981,0,0,1-.59-.59"/><path class="cls-1" d="M103.4318,20.3493h12.693a.13092.13092,0,0,0,.134-.128,5.12322,5.12322,0,0,0-.702-2.396,5.72257,5.72257,0,0,0-2.057-2.072,6.52745,6.52745,0,0,0-3.439-.824,7.55848,7.55848,0,0,0-3.692.824,6.12845,6.12845,0,0,0-2.283,2.072,4.71428,4.71428,0,0,0-.786,2.397.129.129,0,0,0,.132.127m14.318,8.075a.5787.5787,0,0,1,.854.125l2.172,3.159a.78128.78128,0,0,1-.136,1.038,18.39129,18.39129,0,0,1-1.962,1.496,14.52465,14.52465,0,0,1-3.453,1.434,18.17339,18.17339,0,0,1-5.021.61,13.48847,13.48847,0,0,1-6.934-1.726,12.02256,12.02256,0,0,1-4.595-4.808,14.75967,14.75967,0,0,1-1.646-7.067,13.49279,13.49279,0,0,1,1.62-6.613,12.17068,12.17068,0,0,1,11.023-6.402,12.41254,12.41254,0,0,1,5.792,1.221,10.43806,10.43806,0,0,1,3.772,3.268,13.73542,13.73542,0,0,1,2.072,4.595,21.38933,21.38933,0,0,1,.637,5.207.90263.90263,0,0,1-.903.903h-17.565a.127.127,0,0,0-.125.128,5.03367,5.03367,0,0,0,1.034,3.033,7.21067,7.21067,0,0,0,2.631,2.126,7.37812,7.37812,0,0,0,3.24.77,12.39539,12.39539,0,0,0,4.038-.558,10.03875,10.03875,0,0,0,2.55-1.249q.5355-.387.905-.69"/><path class="cls-1" d="M138.8564,10.8519a.78465.78465,0,0,0-.802-.786c-.418.01-.886.028-1.115.057a7.89085,7.89085,0,0,0-2.09.53,9.4822,9.4822,0,0,0-2.444,1.434,11.095,11.095,0,0,0-1.53,1.521.04452.04452,0,0,1-.072-.004l-1.881-2.705a.88781.88781,0,0,0-.727-.379h-2.929a.59066.59066,0,0,0-.591.59v23.737a.59066.59066,0,0,0,.591.59h5.088a.59066.59066,0,0,0,.591-.59V21.9959a5.59562,5.59562,0,0,1,1.858-4.41,6.50592,6.50592,0,0,1,4.463-1.647,9.15773,9.15773,0,0,1,.951.048.585.585,0,0,0,.639-.586Z"/><path class="cls-2" d="M170.3922,12.7283l-.72-1.605a.80857.80857,0,0,0-.798-.474l-6.528.503,3.7-5.402a.80917.80917,0,0,0-.013-.929l-1.029-1.425a.81011.81011,0,0,0-.572-.332l-1.75-.178a.80561.80561,0,0,0-.81.455l-2.828,5.904-2.829-5.904a.80563.80563,0,0,0-.81-.455l-1.75.178a.81011.81011,0,0,0-.572.332l-1.03,1.425a.80911.80911,0,0,0-.011.929l3.698,5.402-6.527-.503a.80463.80463,0,0,0-.797.474l-.721,1.605a.80769.80769,0,0,0,0,.66l.721,1.605a.80319.80319,0,0,0,.797.474l6.527-.502-3.698,5.402a.80912.80912,0,0,0,.011.929l1.03,1.426a.80787.80787,0,0,0,.572.33l1.75.178a.80707.80707,0,0,0,.81-.453l2.829-5.906,2.828,5.906a.807.807,0,0,0,.81.453l1.75-.178a.80787.80787,0,0,0,.572-.33l1.029-1.426a.80917.80917,0,0,0,.013-.929l-3.7-5.402,6.528.502a.80712.80712,0,0,0,.798-.474l.72-1.605a.8.8,0,0,0,0-.66"/></g></g></svg>